<?xml version="1.0" encoding="utf-8" standalone="no"?>
<!DOCTYPE svg PUBLIC "-//W3C//DTD SVG 1.1//EN"
  "http://www.w3.org/Graphics/SVG/1.1/DTD/svg11.dtd">
<!-- Created with matplotlib (http://matplotlib.org/) -->
<svg height="576pt" version="1.1" viewBox="0 0 576 576" width="576pt" xmlns="http://www.w3.org/2000/svg" xmlns:xlink="http://www.w3.org/1999/xlink">
 <defs>
  <style type="text/css">
*{stroke-linecap:butt;stroke-linejoin:round;stroke-miterlimit:100000;}
  </style>
 </defs>
 <g id="figure_1">
  <g id="patch_1">
   <path d="M 0 576 
L 576 576 
L 576 0 
L 0 0 
z
" style="fill:#ffffff;"/>
  </g>
  <g id="axes_1">
   <g id="patch_2">
    <path d="M 72 504 
L 518.4 504 
L 518.4 57.6 
L 72 57.6 
z
" style="fill:#ffffff;"/>
   </g>
   <g id="PathCollection_1">
    <path clip-path="url(#p18e734dcea)" d="M 272.88 205.899896 
L 284.04 208.879963 
L 295.2 209.876005 
L 306.36 208.879963 
L 317.52 205.899896 
L 324.780784 202.68 
L 328.68 200.646432 
L 339.84 192.638093 
L 341.068154 191.52 
L 351 180.411276 
L 351.038578 180.36 
L 357.064631 169.2 
L 360.227146 158.04 
L 359.006503 146.88 
L 351 136.531182 
L 350.088001 135.72 
L 339.84 131.249247 
L 328.68 128.018421 
L 317.52 125.96886 
L 306.36 124.829825 
L 298.14165 124.56 
L 295.2 124.493836 
L 292.25835 124.56 
L 284.04 124.829825 
L 272.88 125.96886 
L 261.72 128.018422 
L 250.56 131.249247 
L 240.311999 135.72 
L 239.4 136.531182 
L 231.393498 146.88 
L 230.172855 158.04 
L 233.335369 169.2 
L 239.361422 180.36 
L 239.4 180.411275 
L 249.331847 191.52 
L 250.56 192.638092 
L 261.72 200.646431 
L 265.619217 202.68 
z
" style="fill:#471164;"/>
   </g>
   <g id="PathCollection_2">
    <path clip-path="url(#p18e734dcea)" d="M 261.72 227.403829 
L 272.88 231.483914 
L 284.04 233.909912 
L 295.2 234.715205 
L 306.36 233.909912 
L 317.52 231.483914 
L 328.68 227.403829 
L 333.338072 225 
L 339.84 221.386536 
L 350.324266 213.84 
L 351 213.303435 
L 361.970491 202.68 
L 362.16 202.472026 
L 370.699918 191.52 
L 373.32 187.590061 
L 377.581639 180.36 
L 382.93088 169.2 
L 384.48 164.532553 
L 386.467202 158.04 
L 387.844174 146.88 
L 386.005683 135.72 
L 384.48 133.229298 
L 376.983587 124.56 
L 373.32 122.51933 
L 362.16 118.041036 
L 351 114.988098 
L 342.71984 113.4 
L 339.84 113.022748 
L 328.68 111.962042 
L 317.52 111.257253 
L 306.36 110.853851 
L 295.2 110.722476 
L 284.04 110.853851 
L 272.88 111.257253 
L 261.72 111.962042 
L 250.56 113.022748 
L 247.68016 113.4 
L 239.4 114.988098 
L 228.24 118.041036 
L 217.08 122.51933 
L 213.416413 124.56 
L 205.92 133.229298 
L 204.394317 135.72 
L 202.555827 146.88 
L 203.932798 158.04 
L 205.92 164.532552 
L 207.46912 169.2 
L 212.818362 180.36 
L 217.08 187.59006 
L 219.700082 191.52 
L 228.24 202.472025 
L 228.42951 202.68 
L 239.4 213.303434 
L 240.075734 213.84 
L 250.56 221.386536 
L 257.061928 225 
z
M 265.619217 202.68 
L 261.72 200.646431 
L 250.56 192.638092 
L 249.331847 191.52 
L 239.4 180.411275 
L 239.361422 180.36 
L 233.335369 169.2 
L 230.172855 158.04 
L 231.393498 146.88 
L 239.4 136.531182 
L 240.311999 135.72 
L 250.56 131.249247 
L 261.72 128.018422 
L 272.88 125.96886 
L 284.04 124.829825 
L 292.25835 124.56 
L 295.2 124.493836 
L 298.14165 124.56 
L 306.36 124.829825 
L 317.52 125.96886 
L 328.68 128.018421 
L 339.84 131.249247 
L 350.088001 135.72 
L 351 136.531182 
L 359.006503 146.88 
L 360.227146 158.04 
L 357.064631 169.2 
L 351.038578 180.36 
L 351 180.411276 
L 341.068154 191.52 
L 339.84 192.638093 
L 328.68 200.646432 
L 324.780784 202.68 
L 317.52 205.899896 
L 306.36 208.879963 
L 295.2 209.876005 
L 284.04 208.879963 
L 272.88 205.899896 
z
" style="fill:#472f7d;"/>
   </g>
   <g id="PathCollection_3">
    <path clip-path="url(#p18e734dcea)" d="M 261.72 250.406562 
L 272.88 253.992749 
L 284.04 256.109436 
L 295.2 256.80942 
L 306.36 256.109436 
L 317.52 253.99275 
L 328.68 250.406562 
L 335.419439 247.32 
L 339.84 245.219295 
L 351 238.270161 
L 353.724125 236.16 
L 362.16 229.261172 
L 366.497348 225 
L 373.32 217.823828 
L 376.574336 213.84 
L 384.48 203.342655 
L 384.919672 202.68 
L 391.689275 191.52 
L 395.64 184.206971 
L 397.523751 180.36 
L 402.231245 169.2 
L 406.079314 158.04 
L 406.8 154.881204 
L 408.528541 146.88 
L 409.203258 135.72 
L 406.830566 124.56 
L 406.8 124.511934 
L 396.459697 113.4 
L 395.64 112.976586 
L 384.48 108.72025 
L 373.32 105.841898 
L 362.16 103.827505 
L 351 102.391213 
L 349.41193 102.24 
L 339.84 101.571725 
L 328.68 101.011036 
L 317.52 100.633704 
L 306.36 100.415948 
L 295.2 100.344746 
L 284.04 100.415948 
L 272.88 100.633704 
L 261.72 101.011036 
L 250.56 101.571725 
L 240.98807 102.24 
L 239.4 102.391213 
L 228.24 103.827505 
L 217.08 105.841898 
L 205.92 108.72025 
L 194.76 112.976586 
L 193.940303 113.4 
L 183.6 124.511935 
L 183.569434 124.56 
L 181.196742 135.72 
L 181.871459 146.88 
L 183.6 154.881203 
L 184.320686 158.04 
L 188.168755 169.2 
L 192.876249 180.36 
L 194.76 184.206971 
L 198.710725 191.52 
L 205.480328 202.68 
L 205.92 203.342654 
L 213.825664 213.84 
L 217.08 217.823828 
L 223.902653 225 
L 228.24 229.261172 
L 236.675875 236.16 
L 239.4 238.27016 
L 250.56 245.219294 
L 254.980562 247.32 
z
M 257.061928 225 
L 250.56 221.386536 
L 240.075734 213.84 
L 239.4 213.303434 
L 228.42951 202.68 
L 228.24 202.472025 
L 219.700082 191.52 
L 217.08 187.59006 
L 212.818362 180.36 
L 207.46912 169.2 
L 205.92 164.532552 
L 203.932798 158.04 
L 202.555827 146.88 
L 204.394317 135.72 
L 205.92 133.229298 
L 213.416413 124.56 
L 217.08 122.51933 
L 228.24 118.041036 
L 239.4 114.988098 
L 247.68016 113.4 
L 250.56 113.022748 
L 261.72 111.962042 
L 272.88 111.257253 
L 284.04 110.853851 
L 295.2 110.722476 
L 306.36 110.853851 
L 317.52 111.257253 
L 328.68 111.962042 
L 339.84 113.022748 
L 342.71984 113.4 
L 351 114.988098 
L 362.16 118.041036 
L 373.32 122.51933 
L 376.983587 124.56 
L 384.48 133.229298 
L 386.005683 135.72 
L 387.844174 146.88 
L 386.467202 158.04 
L 384.48 164.532553 
L 382.93088 169.2 
L 377.581639 180.36 
L 373.32 187.590061 
L 370.699918 191.52 
L 362.16 202.472026 
L 361.970491 202.68 
L 351 213.303435 
L 350.324266 213.84 
L 339.84 221.386536 
L 333.338072 225 
L 328.68 227.403829 
L 317.52 231.483914 
L 306.36 233.909912 
L 295.2 234.715205 
L 284.04 233.909912 
L 272.88 231.483914 
L 261.72 227.403829 
z
" style="fill:#3e4c8a;"/>
   </g>
   <g id="PathCollection_4">
    <path clip-path="url(#p18e734dcea)" d="M 261.72 272.633486 
L 272.88 275.87657 
L 284.04 277.782078 
L 295.2 278.410768 
L 306.36 277.782078 
L 317.52 275.87657 
L 328.68 272.633487 
L 335.86848 269.64 
L 339.84 267.961407 
L 351 261.74302 
L 355.649922 258.48 
L 362.16 253.754946 
L 369.441776 247.32 
L 373.32 243.729811 
L 380.25563 236.16 
L 384.48 231.271777 
L 389.196482 225 
L 395.64 215.815411 
L 396.871792 213.84 
L 403.391229 202.68 
L 406.8 196.341681 
L 409.157849 191.52 
L 414.153595 180.36 
L 417.96 170.918964 
L 418.603258 169.2 
L 422.222699 158.04 
L 425.178236 146.88 
L 427.181188 135.72 
L 427.50488 124.56 
L 424.271436 113.4 
L 417.96 106.835518 
L 410.886034 102.24 
L 406.8 100.847499 
L 395.64 98.129649 
L 384.48 96.251644 
L 373.32 94.908255 
L 362.16 93.926542 
L 351 93.202692 
L 339.84 92.671775 
L 328.68 92.292181 
L 317.52 92.03718 
L 306.36 91.890194 
L 295.2 91.84216 
L 284.04 91.890194 
L 272.88 92.03718 
L 261.72 92.292181 
L 250.56 92.671775 
L 239.4 93.202692 
L 228.24 93.926542 
L 217.08 94.908255 
L 205.92 96.251644 
L 194.76 98.129649 
L 183.6 100.847499 
L 179.513966 102.24 
L 172.44 106.835518 
L 166.128564 113.4 
L 162.89512 124.56 
L 163.218812 135.72 
L 165.221765 146.88 
L 168.177302 158.04 
L 171.796742 169.2 
L 172.44 170.918963 
L 176.246405 180.36 
L 181.242152 191.52 
L 183.6 196.341681 
L 187.008771 202.68 
L 193.528208 213.84 
L 194.76 215.815411 
L 201.203518 225 
L 205.92 231.271777 
L 210.144371 236.16 
L 217.08 243.729811 
L 220.958225 247.32 
L 228.24 253.754945 
L 234.750079 258.48 
L 239.4 261.74302 
L 250.56 267.961406 
L 254.531521 269.64 
z
M 254.980562 247.32 
L 250.56 245.219294 
L 239.4 238.27016 
L 236.675875 236.16 
L 228.24 229.261172 
L 223.902653 225 
L 217.08 217.823828 
L 213.825664 213.84 
L 205.92 203.342654 
L 205.480328 202.68 
L 198.710725 191.52 
L 194.76 184.206971 
L 192.876249 180.36 
L 188.168755 169.2 
L 184.320686 158.04 
L 183.6 154.881203 
L 181.871459 146.88 
L 181.196742 135.72 
L 183.569434 124.56 
L 183.6 124.511935 
L 193.940303 113.4 
L 194.76 112.976586 
L 205.92 108.72025 
L 217.08 105.841898 
L 228.24 103.827505 
L 239.4 102.391213 
L 240.98807 102.24 
L 250.56 101.571725 
L 261.72 101.011036 
L 272.88 100.633704 
L 284.04 100.415948 
L 295.2 100.344746 
L 306.36 100.415948 
L 317.52 100.633704 
L 328.68 101.011036 
L 339.84 101.571725 
L 349.41193 102.24 
L 351 102.391213 
L 362.16 103.827505 
L 373.32 105.841898 
L 384.48 108.72025 
L 395.64 112.976586 
L 396.459697 113.4 
L 406.8 124.511934 
L 406.830566 124.56 
L 409.203258 135.72 
L 408.528541 146.88 
L 406.8 154.881204 
L 406.079314 158.04 
L 402.231245 169.2 
L 397.523751 180.36 
L 395.64 184.206971 
L 391.689275 191.52 
L 384.919672 202.68 
L 384.48 203.342655 
L 376.574336 213.84 
L 373.32 217.823828 
L 366.497348 225 
L 362.16 229.261172 
L 353.724125 236.16 
L 351 238.270161 
L 339.84 245.219295 
L 335.419439 247.32 
L 328.68 250.406562 
L 317.52 253.99275 
L 306.36 256.109436 
L 295.2 256.80942 
L 284.04 256.109436 
L 272.88 253.992749 
L 261.72 250.406562 
z
" style="fill:#32648e;"/>
   </g>
   <g id="PathCollection_5">
    <path clip-path="url(#p18e734dcea)" d="M 261.72 295.353695 
L 272.88 298.303082 
L 284.04 300.03097 
L 295.2 300.600207 
L 306.36 300.03097 
L 317.52 298.303082 
L 328.68 295.353695 
L 337.574942 291.96 
L 339.84 291.095819 
L 351 285.483724 
L 358.283305 280.8 
L 362.16 278.255056 
L 372.813342 269.64 
L 373.32 269.216321 
L 384.09275 258.48 
L 384.48 258.075841 
L 393.360491 247.32 
L 395.64 244.392926 
L 401.289713 236.16 
L 406.8 227.543999 
L 408.261919 225 
L 414.330255 213.84 
L 417.96 206.65593 
L 419.801649 202.68 
L 424.651929 191.52 
L 429.12 180.370116 
L 429.123781 180.36 
L 433.021006 169.2 
L 436.555451 158.04 
L 439.719178 146.88 
L 440.28 144.450918 
L 442.210913 135.72 
L 443.846876 124.56 
L 443.931193 113.4 
L 440.28 102.248673 
L 440.275712 102.24 
L 429.12 94.651532 
L 419.380897 91.08 
L 417.96 90.790695 
L 406.8 89.113756 
L 395.64 87.929468 
L 384.48 87.06414 
L 373.32 86.417641 
L 362.16 85.928791 
L 351 85.558563 
L 339.84 85.281314 
L 328.68 85.079951 
L 317.52 84.943147 
L 306.36 84.863713 
L 295.2 84.837661 
L 284.04 84.863713 
L 272.88 84.943147 
L 261.72 85.079951 
L 250.56 85.281314 
L 239.4 85.558563 
L 228.24 85.928791 
L 217.08 86.417641 
L 205.92 87.06414 
L 194.76 87.929468 
L 183.6 89.113756 
L 172.44 90.790695 
L 171.019103 91.08 
L 161.28 94.651532 
L 150.124288 102.24 
L 150.12 102.248673 
L 146.468807 113.4 
L 146.553124 124.56 
L 148.189087 135.72 
L 150.12 144.450918 
L 150.680822 146.88 
L 153.844549 158.04 
L 157.378994 169.2 
L 161.276219 180.36 
L 161.28 180.370115 
L 165.748071 191.52 
L 170.598351 202.68 
L 172.44 206.655929 
L 176.069746 213.84 
L 182.138082 225 
L 183.6 227.543998 
L 189.110288 236.16 
L 194.76 244.392926 
L 197.03951 247.32 
L 205.92 258.07584 
L 206.307251 258.48 
L 217.08 269.21632 
L 217.586658 269.64 
L 228.24 278.255055 
L 232.116696 280.8 
L 239.4 285.483723 
L 250.56 291.095818 
L 252.825059 291.96 
z
M 254.531521 269.64 
L 250.56 267.961406 
L 239.4 261.74302 
L 234.750079 258.48 
L 228.24 253.754945 
L 220.958225 247.32 
L 217.08 243.729811 
L 210.144371 236.16 
L 205.92 231.271777 
L 201.203518 225 
L 194.76 215.815411 
L 193.528208 213.84 
L 187.008771 202.68 
L 183.6 196.341681 
L 181.242152 191.52 
L 176.246405 180.36 
L 172.44 170.918963 
L 171.796742 169.2 
L 168.177302 158.04 
L 165.221765 146.88 
L 163.218812 135.72 
L 162.89512 124.56 
L 166.128564 113.4 
L 172.44 106.835518 
L 179.513966 102.24 
L 183.6 100.847499 
L 194.76 98.129649 
L 205.92 96.251644 
L 217.08 94.908255 
L 228.24 93.926542 
L 239.4 93.202692 
L 250.56 92.671775 
L 261.72 92.292181 
L 272.88 92.03718 
L 284.04 91.890194 
L 295.2 91.84216 
L 306.36 91.890194 
L 317.52 92.03718 
L 328.68 92.292181 
L 339.84 92.671775 
L 351 93.202692 
L 362.16 93.926542 
L 373.32 94.908255 
L 384.48 96.251644 
L 395.64 98.129649 
L 406.8 100.847499 
L 410.886034 102.24 
L 417.96 106.835518 
L 424.271436 113.4 
L 427.50488 124.56 
L 427.181188 135.72 
L 425.178236 146.88 
L 422.222699 158.04 
L 418.603258 169.2 
L 417.96 170.918964 
L 414.153595 180.36 
L 409.157849 191.52 
L 406.8 196.341681 
L 403.391229 202.68 
L 396.871792 213.84 
L 395.64 215.815411 
L 389.196482 225 
L 384.48 231.271777 
L 380.25563 236.16 
L 373.32 243.729811 
L 369.441776 247.32 
L 362.16 253.754946 
L 355.649922 258.48 
L 351 261.74302 
L 339.84 267.961407 
L 335.86848 269.64 
L 328.68 272.633487 
L 317.52 275.87657 
L 306.36 277.782078 
L 295.2 278.410768 
L 284.04 277.782078 
L 272.88 275.87657 
L 261.72 272.633486 
z
" style="fill:#297a8e;"/>
   </g>
   <g id="PathCollection_6">
    <path clip-path="url(#p18e734dcea)" d="M 250.56 315.713141 
L 261.72 319.562144 
L 272.88 322.204905 
L 284.04 323.75021 
L 295.2 324.258801 
L 306.36 323.75021 
L 317.52 322.204905 
L 328.68 319.562145 
L 339.84 315.713142 
L 342.996815 314.28 
L 351 310.654963 
L 362.16 304.123002 
L 363.569488 303.12 
L 373.32 296.034734 
L 377.954023 291.96 
L 384.48 286.01747 
L 389.351878 280.8 
L 395.64 273.724188 
L 398.802369 269.64 
L 406.8 258.619553 
L 406.890189 258.48 
L 413.829153 247.32 
L 417.96 240.118372 
L 420.028168 236.16 
L 425.530072 225 
L 429.12 217.15129 
L 430.527663 213.84 
L 435.033899 202.68 
L 439.190144 191.52 
L 440.28 188.455038 
L 443.002501 180.36 
L 446.510261 169.2 
L 449.785336 158.04 
L 451.44 152.03783 
L 452.801927 146.88 
L 455.466994 135.72 
L 457.749978 124.56 
L 459.373725 113.4 
L 459.406732 102.24 
L 454.290797 91.08 
L 451.44 89.248784 
L 440.28 85.022138 
L 429.12 82.70229 
L 417.96 81.276213 
L 406.8 80.330744 
L 400.021535 79.92 
L 395.64 79.730284 
L 384.48 79.354198 
L 373.32 79.063469 
L 362.16 78.837638 
L 351 78.662948 
L 339.84 78.529963 
L 328.68 78.432169 
L 317.52 78.365133 
L 306.36 78.325983 
L 295.2 78.313107 
L 284.04 78.325983 
L 272.88 78.365133 
L 261.72 78.432169 
L 250.56 78.529963 
L 239.4 78.662948 
L 228.24 78.837638 
L 217.08 79.063469 
L 205.92 79.354198 
L 194.76 79.730284 
L 190.378465 79.92 
L 183.6 80.330744 
L 172.44 81.276213 
L 161.28 82.70229 
L 150.12 85.022138 
L 138.96 89.248784 
L 136.109203 91.08 
L 130.993268 102.24 
L 131.026275 113.4 
L 132.650022 124.56 
L 134.933006 135.72 
L 137.598073 146.88 
L 138.96 152.03783 
L 140.614664 158.04 
L 143.889739 169.2 
L 147.397499 180.36 
L 150.12 188.455037 
L 151.209857 191.52 
L 155.366101 202.68 
L 159.872337 213.84 
L 161.28 217.151289 
L 164.869928 225 
L 170.371833 236.16 
L 172.44 240.118371 
L 176.570848 247.32 
L 183.509811 258.48 
L 183.6 258.619552 
L 191.597632 269.64 
L 194.76 273.724187 
L 201.048123 280.8 
L 205.92 286.017469 
L 212.445978 291.96 
L 217.08 296.034734 
L 226.830513 303.12 
L 228.24 304.123001 
L 239.4 310.654962 
L 247.403186 314.28 
z
M 252.825059 291.96 
L 250.56 291.095818 
L 239.4 285.483723 
L 232.116696 280.8 
L 228.24 278.255055 
L 217.586658 269.64 
L 217.08 269.21632 
L 206.307251 258.48 
L 205.92 258.07584 
L 197.03951 247.32 
L 194.76 244.392926 
L 189.110288 236.16 
L 183.6 227.543998 
L 182.138082 225 
L 176.069746 213.84 
L 172.44 206.655929 
L 170.598351 202.68 
L 165.748071 191.52 
L 161.28 180.370115 
L 161.276219 180.36 
L 157.378994 169.2 
L 153.844549 158.04 
L 150.680822 146.88 
L 150.12 144.450918 
L 148.189087 135.72 
L 146.553124 124.56 
L 146.468807 113.4 
L 150.12 102.248673 
L 150.124288 102.24 
L 161.28 94.651532 
L 171.019103 91.08 
L 172.44 90.790695 
L 183.6 89.113756 
L 194.76 87.929468 
L 205.92 87.06414 
L 217.08 86.417641 
L 228.24 85.928791 
L 239.4 85.558563 
L 250.56 85.281314 
L 261.72 85.079951 
L 272.88 84.943147 
L 284.04 84.863713 
L 295.2 84.837661 
L 306.36 84.863713 
L 317.52 84.943147 
L 328.68 85.079951 
L 339.84 85.281314 
L 351 85.558563 
L 362.16 85.928791 
L 373.32 86.417641 
L 384.48 87.06414 
L 395.64 87.929468 
L 406.8 89.113756 
L 417.96 90.790695 
L 419.380897 91.08 
L 429.12 94.651532 
L 440.275712 102.24 
L 440.28 102.248673 
L 443.931193 113.4 
L 443.846876 124.56 
L 442.210913 135.72 
L 440.28 144.450918 
L 439.719178 146.88 
L 436.555451 158.04 
L 433.021006 169.2 
L 429.123781 180.36 
L 429.12 180.370116 
L 424.651929 191.52 
L 419.801649 202.68 
L 417.96 206.65593 
L 414.330255 213.84 
L 408.261919 225 
L 406.8 227.543999 
L 401.289713 236.16 
L 395.64 244.392926 
L 393.360491 247.32 
L 384.48 258.075841 
L 384.09275 258.48 
L 373.32 269.216321 
L 372.813342 269.64 
L 362.16 278.255056 
L 358.283305 280.8 
L 351 285.483724 
L 339.84 291.095819 
L 337.574942 291.96 
L 328.68 295.353695 
L 317.52 298.303082 
L 306.36 300.03097 
L 295.2 300.600207 
L 284.04 300.03097 
L 272.88 298.303082 
L 261.72 295.353695 
z
" style="fill:#21918c;"/>
   </g>
   <g id="PathCollection_7">
    <path clip-path="url(#p18e734dcea)" d="M 272.88 348.666722 
L 284.04 350.072667 
L 295.2 350.534857 
L 306.36 350.072667 
L 317.52 348.666722 
L 321.783968 347.76 
L 328.68 346.342989 
L 339.84 343.027652 
L 351 338.517221 
L 354.748611 336.6 
L 362.16 332.810164 
L 373.32 325.576935 
L 373.498213 325.44 
L 384.48 316.773723 
L 387.127268 314.28 
L 395.64 305.908381 
L 398.079846 303.12 
L 406.8 292.529776 
L 407.213637 291.96 
L 414.963575 280.8 
L 417.96 276.141923 
L 421.744217 269.64 
L 427.720206 258.48 
L 429.12 255.719088 
L 433.065843 247.32 
L 437.866622 236.16 
L 440.28 230.159981 
L 442.247727 225 
L 446.258345 213.84 
L 449.934863 202.68 
L 451.44 197.902591 
L 453.386077 191.52 
L 456.609456 180.36 
L 459.623265 169.2 
L 462.489147 158.04 
L 462.6 157.60184 
L 465.246138 146.88 
L 467.835512 135.72 
L 470.275231 124.56 
L 472.53188 113.4 
L 473.76 105.634988 
L 474.286847 102.24 
L 474.425747 91.08 
L 473.76 89.366635 
L 466.175174 79.92 
L 462.6 78.755525 
L 451.44 76.651721 
L 440.28 75.439099 
L 429.12 74.661644 
L 417.96 74.127061 
L 406.8 73.741558 
L 395.64 73.454294 
L 384.48 73.235464 
L 373.32 73.066535 
L 362.16 72.935461 
L 351 72.834159 
L 339.84 72.757094 
L 328.68 72.700453 
L 317.52 72.661641 
L 306.36 72.63898 
L 295.2 72.631528 
L 284.04 72.63898 
L 272.88 72.661641 
L 261.72 72.700453 
L 250.56 72.757094 
L 239.4 72.834159 
L 228.24 72.935461 
L 217.08 73.066535 
L 205.92 73.235464 
L 194.76 73.454294 
L 183.6 73.741558 
L 172.44 74.127061 
L 161.28 74.661644 
L 150.12 75.439099 
L 138.96 76.651721 
L 127.8 78.755525 
L 124.224826 79.92 
L 116.64 89.366635 
L 115.974253 91.08 
L 116.113153 102.24 
L 116.64 105.634988 
L 117.86812 113.4 
L 120.124769 124.56 
L 122.564488 135.72 
L 125.153862 146.88 
L 127.8 157.60184 
L 127.910853 158.04 
L 130.776735 169.2 
L 133.790544 180.36 
L 137.013924 191.52 
L 138.96 197.90259 
L 140.465137 202.68 
L 144.141655 213.84 
L 148.152273 225 
L 150.12 230.15998 
L 152.533378 236.16 
L 157.334157 247.32 
L 161.28 255.719087 
L 162.679795 258.48 
L 168.655783 269.64 
L 172.44 276.141921 
L 175.436426 280.8 
L 183.186363 291.96 
L 183.6 292.529775 
L 192.320155 303.12 
L 194.76 305.90838 
L 203.272733 314.28 
L 205.92 316.773722 
L 216.901788 325.44 
L 217.08 325.576934 
L 228.24 332.810164 
L 235.65139 336.6 
L 239.4 338.51722 
L 250.56 343.027651 
L 261.72 346.342989 
L 268.616033 347.76 
z
M 247.403186 314.28 
L 239.4 310.654962 
L 228.24 304.123001 
L 226.830513 303.12 
L 217.08 296.034734 
L 212.445978 291.96 
L 205.92 286.017469 
L 201.048123 280.8 
L 194.76 273.724187 
L 191.597632 269.64 
L 183.6 258.619552 
L 183.509811 258.48 
L 176.570848 247.32 
L 172.44 240.118371 
L 170.371833 236.16 
L 164.869928 225 
L 161.28 217.151289 
L 159.872337 213.84 
L 155.366101 202.68 
L 151.209857 191.52 
L 150.12 188.455037 
L 147.397499 180.36 
L 143.889739 169.2 
L 140.614664 158.04 
L 138.96 152.03783 
L 137.598073 146.88 
L 134.933006 135.72 
L 132.650022 124.56 
L 131.026275 113.4 
L 130.993268 102.24 
L 136.109203 91.08 
L 138.96 89.248784 
L 150.12 85.022138 
L 161.28 82.70229 
L 172.44 81.276213 
L 183.6 80.330744 
L 190.378465 79.92 
L 194.76 79.730284 
L 205.92 79.354198 
L 217.08 79.063469 
L 228.24 78.837638 
L 239.4 78.662948 
L 250.56 78.529963 
L 261.72 78.432169 
L 272.88 78.365133 
L 284.04 78.325983 
L 295.2 78.313107 
L 306.36 78.325983 
L 317.52 78.365133 
L 328.68 78.432169 
L 339.84 78.529963 
L 351 78.662948 
L 362.16 78.837638 
L 373.32 79.063469 
L 384.48 79.354198 
L 395.64 79.730284 
L 400.021535 79.92 
L 406.8 80.330744 
L 417.96 81.276213 
L 429.12 82.70229 
L 440.28 85.022138 
L 451.44 89.248784 
L 454.290797 91.08 
L 459.406732 102.24 
L 459.373725 113.4 
L 457.749978 124.56 
L 455.466994 135.72 
L 452.801927 146.88 
L 451.44 152.03783 
L 449.785336 158.04 
L 446.510261 169.2 
L 443.002501 180.36 
L 440.28 188.455038 
L 439.190144 191.52 
L 435.033899 202.68 
L 430.527663 213.84 
L 429.12 217.15129 
L 425.530072 225 
L 420.028168 236.16 
L 417.96 240.118372 
L 413.829153 247.32 
L 406.890189 258.48 
L 406.8 258.619553 
L 398.802369 269.64 
L 395.64 273.724188 
L 389.351878 280.8 
L 384.48 286.01747 
L 377.954023 291.96 
L 373.32 296.034734 
L 363.569488 303.12 
L 362.16 304.123002 
L 351 310.654963 
L 342.996815 314.28 
L 339.84 315.713142 
L 328.68 319.562145 
L 317.52 322.204905 
L 306.36 323.75021 
L 295.2 324.258801 
L 284.04 323.75021 
L 272.88 322.204905 
L 261.72 319.562144 
L 250.56 315.713141 
z
" style="fill:#21a685;"/>
   </g>
   <g id="PathCollection_8">
    <path clip-path="url(#p18e734dcea)" d="M 239.4 371.031182 
L 250.56 374.839786 
L 261.72 377.630559 
L 272.88 379.538608 
L 284.04 380.651012 
L 295.2 381.016572 
L 306.36 380.651012 
L 317.52 379.538608 
L 328.68 377.630559 
L 339.84 374.839786 
L 351 371.031183 
L 353.218211 370.08 
L 362.16 366.29146 
L 373.32 360.229995 
L 375.326999 358.92 
L 384.48 352.839104 
L 390.756145 347.76 
L 395.64 343.663017 
L 402.763921 336.6 
L 406.8 332.369219 
L 412.547936 325.44 
L 417.96 318.387499 
L 420.772805 314.28 
L 427.806877 303.12 
L 429.12 300.896219 
L 433.968613 291.96 
L 439.355326 280.8 
L 440.28 278.776356 
L 444.227586 269.64 
L 448.558865 258.48 
L 451.44 250.331804 
L 452.478044 247.32 
L 456.13679 236.16 
L 459.430797 225 
L 462.428902 213.84 
L 462.6 213.191601 
L 465.385278 202.68 
L 468.108592 191.52 
L 470.636888 180.36 
L 473.021937 169.2 
L 473.76 165.736496 
L 475.441661 158.04 
L 477.795485 146.88 
L 480.055157 135.72 
L 482.272915 124.56 
L 484.512595 113.4 
L 484.92 111.357104 
L 486.724768 102.24 
L 488.50295 91.08 
L 488.627224 79.92 
L 484.92 75.167753 
L 473.76 70.359886 
L 462.6 68.825607 
L 461.674773 68.76 
L 451.44 68.366557 
L 440.28 68.078482 
L 429.12 67.872859 
L 417.96 67.71979 
L 406.8 67.602574 
L 395.64 67.511088 
L 384.48 67.438824 
L 373.32 67.38142 
L 362.16 67.335859 
L 351 67.300011 
L 339.84 67.272358 
L 328.68 67.251818 
L 317.52 67.237636 
L 306.36 67.229314 
L 295.2 67.226571 
L 284.04 67.229314 
L 272.88 67.237636 
L 261.72 67.251818 
L 250.56 67.272358 
L 239.4 67.300011 
L 228.24 67.335859 
L 217.08 67.38142 
L 205.92 67.438824 
L 194.76 67.511088 
L 183.6 67.602574 
L 172.44 67.71979 
L 161.28 67.872859 
L 150.12 68.078482 
L 138.96 68.366557 
L 128.725227 68.76 
L 127.8 68.825607 
L 116.64 70.359886 
L 105.48 75.167753 
L 101.772776 79.92 
L 101.89705 91.08 
L 103.675232 102.24 
L 105.48 111.357104 
L 105.887405 113.4 
L 108.127085 124.56 
L 110.344843 135.72 
L 112.604515 146.88 
L 114.958339 158.04 
L 116.64 165.736495 
L 117.378063 169.2 
L 119.763112 180.36 
L 122.291408 191.52 
L 125.014722 202.68 
L 127.8 213.191601 
L 127.971099 213.84 
L 130.969203 225 
L 134.263211 236.16 
L 137.921957 247.32 
L 138.96 250.331803 
L 141.841136 258.48 
L 146.172414 269.64 
L 150.12 278.776354 
L 151.044674 280.8 
L 156.431388 291.96 
L 161.28 300.896218 
L 162.593123 303.12 
L 169.627196 314.28 
L 172.44 318.387497 
L 177.852065 325.44 
L 183.6 332.369218 
L 187.63608 336.6 
L 194.76 343.663016 
L 199.643856 347.76 
L 205.92 352.839103 
L 215.073002 358.92 
L 217.08 360.229994 
L 228.24 366.291459 
L 237.181791 370.08 
z
M 268.616033 347.76 
L 261.72 346.342989 
L 250.56 343.027651 
L 239.4 338.51722 
L 235.65139 336.6 
L 228.24 332.810164 
L 217.08 325.576934 
L 216.901788 325.44 
L 205.92 316.773722 
L 203.272733 314.28 
L 194.76 305.90838 
L 192.320155 303.12 
L 183.6 292.529775 
L 183.186363 291.96 
L 175.436426 280.8 
L 172.44 276.141921 
L 168.655783 269.64 
L 162.679795 258.48 
L 161.28 255.719087 
L 157.334157 247.32 
L 152.533378 236.16 
L 150.12 230.15998 
L 148.152273 225 
L 144.141655 213.84 
L 140.465137 202.68 
L 138.96 197.90259 
L 137.013924 191.52 
L 133.790544 180.36 
L 130.776735 169.2 
L 127.910853 158.04 
L 127.8 157.60184 
L 125.153862 146.88 
L 122.564488 135.72 
L 120.124769 124.56 
L 117.86812 113.4 
L 116.64 105.634988 
L 116.113153 102.24 
L 115.974253 91.08 
L 116.64 89.366635 
L 124.224826 79.92 
L 127.8 78.755525 
L 138.96 76.651721 
L 150.12 75.439099 
L 161.28 74.661644 
L 172.44 74.127061 
L 183.6 73.741558 
L 194.76 73.454294 
L 205.92 73.235464 
L 217.08 73.066535 
L 228.24 72.935461 
L 239.4 72.834159 
L 250.56 72.757094 
L 261.72 72.700453 
L 272.88 72.661641 
L 284.04 72.63898 
L 295.2 72.631528 
L 306.36 72.63898 
L 317.52 72.661641 
L 328.68 72.700453 
L 339.84 72.757094 
L 351 72.834159 
L 362.16 72.935461 
L 373.32 73.066535 
L 384.48 73.235464 
L 395.64 73.454294 
L 406.8 73.741558 
L 417.96 74.127061 
L 429.12 74.661644 
L 440.28 75.439099 
L 451.44 76.651721 
L 462.6 78.755525 
L 466.175174 79.92 
L 473.76 89.366635 
L 474.425747 91.08 
L 474.286847 102.24 
L 473.76 105.634988 
L 472.53188 113.4 
L 470.275231 124.56 
L 467.835512 135.72 
L 465.246138 146.88 
L 462.6 157.60184 
L 462.489147 158.04 
L 459.623265 169.2 
L 456.609456 180.36 
L 453.386077 191.52 
L 451.44 197.902591 
L 449.934863 202.68 
L 446.258345 213.84 
L 442.247727 225 
L 440.28 230.159981 
L 437.866622 236.16 
L 433.065843 247.32 
L 429.12 255.719088 
L 427.720206 258.48 
L 421.744217 269.64 
L 417.96 276.141923 
L 414.963575 280.8 
L 407.213637 291.96 
L 406.8 292.529776 
L 398.079846 303.12 
L 395.64 305.908381 
L 387.127268 314.28 
L 384.48 316.773723 
L 373.498213 325.44 
L 373.32 325.576935 
L 362.16 332.810164 
L 354.748611 336.6 
L 351 338.517221 
L 339.84 343.027652 
L 328.68 346.342989 
L 321.783968 347.76 
L 317.52 348.666722 
L 306.36 350.072667 
L 295.2 350.534857 
L 284.04 350.072667 
L 272.88 348.666722 
z
" style="fill:#3bbb75;"/>
   </g>
   <g id="PathCollection_9">
    <path clip-path="url(#p18e734dcea)" d="M 250.56 415.262468 
L 261.72 417.362665 
L 272.88 418.793441 
L 284.04 419.625556 
L 295.2 419.898668 
L 306.36 419.625556 
L 317.52 418.793441 
L 328.68 417.362665 
L 339.84 415.262469 
L 342.033269 414.72 
L 351 412.615623 
L 362.16 409.182636 
L 373.32 404.704586 
L 375.684271 403.56 
L 384.48 399.3184 
L 395.64 392.437624 
L 395.692624 392.4 
L 406.8 384.158227 
L 410.072015 381.24 
L 417.96 373.739474 
L 421.27438 370.08 
L 429.12 360.561384 
L 430.324202 358.92 
L 437.8719 347.76 
L 440.28 343.778414 
L 444.302224 336.6 
L 449.768722 325.44 
L 451.44 321.691705 
L 454.626725 314.28 
L 458.874297 303.12 
L 462.52152 291.96 
L 462.6 291.709571 
L 466.055743 280.8 
L 469.140035 269.64 
L 471.849509 258.48 
L 473.76 249.779642 
L 474.337706 247.32 
L 476.846778 236.16 
L 479.090785 225 
L 481.116002 213.84 
L 482.962631 202.68 
L 484.666997 191.52 
L 484.92 189.865309 
L 486.575779 180.36 
L 488.404228 169.2 
L 490.121463 158.04 
L 491.75937 146.88 
L 493.354149 135.72 
L 494.95382 124.56 
L 496.08 117.232348 
L 496.769981 113.4 
L 498.86965 102.24 
L 500.876789 91.08 
L 502.652686 79.92 
L 502.297777 68.76 
L 496.08 65.950881 
L 484.92 64.242895 
L 473.76 63.554271 
L 462.6 63.198495 
L 451.44 62.983279 
L 440.28 62.839241 
L 429.12 62.73643 
L 417.96 62.659895 
L 406.8 62.601287 
L 395.64 62.555544 
L 384.48 62.519412 
L 373.32 62.49071 
L 362.16 62.467929 
L 351 62.450006 
L 339.84 62.436179 
L 328.68 62.425909 
L 317.52 62.418818 
L 306.36 62.414657 
L 295.2 62.413286 
L 284.04 62.414657 
L 272.88 62.418818 
L 261.72 62.425909 
L 250.56 62.436179 
L 239.4 62.450006 
L 228.24 62.467929 
L 217.08 62.49071 
L 205.92 62.519412 
L 194.76 62.555544 
L 183.6 62.601287 
L 172.44 62.659895 
L 161.28 62.73643 
L 150.12 62.839241 
L 138.96 62.983279 
L 127.8 63.198495 
L 116.64 63.554271 
L 105.48 64.242895 
L 94.32 65.950881 
L 88.102223 68.76 
L 87.747314 79.92 
L 89.523211 91.08 
L 91.53035 102.24 
L 93.630019 113.4 
L 94.32 117.232348 
L 95.446181 124.56 
L 97.045851 135.72 
L 98.64063 146.88 
L 100.278537 158.04 
L 101.995772 169.2 
L 103.824221 180.36 
L 105.48 189.865309 
L 105.733003 191.52 
L 107.437369 202.68 
L 109.283998 213.84 
L 111.309216 225 
L 113.553223 236.16 
L 116.062295 247.32 
L 116.64 249.779641 
L 118.550491 258.48 
L 121.259965 269.64 
L 124.344257 280.8 
L 127.8 291.70957 
L 127.878481 291.96 
L 131.525704 303.12 
L 135.773276 314.28 
L 138.96 321.691703 
L 140.631278 325.44 
L 146.097777 336.6 
L 150.12 343.778413 
L 152.528101 347.76 
L 160.075799 358.92 
L 161.28 360.561383 
L 169.125622 370.08 
L 172.44 373.739472 
L 180.327986 381.24 
L 183.6 384.158226 
L 194.707377 392.4 
L 194.76 392.437623 
L 205.92 399.3184 
L 214.715731 403.56 
L 217.08 404.704585 
L 228.24 409.182635 
L 239.4 412.615623 
L 248.366733 414.72 
z
M 237.181791 370.08 
L 228.24 366.291459 
L 217.08 360.229994 
L 215.073002 358.92 
L 205.92 352.839103 
L 199.643856 347.76 
L 194.76 343.663016 
L 187.63608 336.6 
L 183.6 332.369218 
L 177.852065 325.44 
L 172.44 318.387497 
L 169.627196 314.28 
L 162.593123 303.12 
L 161.28 300.896218 
L 156.431388 291.96 
L 151.044674 280.8 
L 150.12 278.776354 
L 146.172414 269.64 
L 141.841136 258.48 
L 138.96 250.331803 
L 137.921957 247.32 
L 134.263211 236.16 
L 130.969203 225 
L 127.971099 213.84 
L 127.8 213.191601 
L 125.014722 202.68 
L 122.291408 191.52 
L 119.763112 180.36 
L 117.378063 169.2 
L 116.64 165.736495 
L 114.958339 158.04 
L 112.604515 146.88 
L 110.344843 135.72 
L 108.127085 124.56 
L 105.887405 113.4 
L 105.48 111.357104 
L 103.675232 102.24 
L 101.89705 91.08 
L 101.772776 79.92 
L 105.48 75.167753 
L 116.64 70.359886 
L 127.8 68.825607 
L 128.725227 68.76 
L 138.96 68.366557 
L 150.12 68.078482 
L 161.28 67.872859 
L 172.44 67.71979 
L 183.6 67.602574 
L 194.76 67.511088 
L 205.92 67.438824 
L 217.08 67.38142 
L 228.24 67.335859 
L 239.4 67.300011 
L 250.56 67.272358 
L 261.72 67.251818 
L 272.88 67.237636 
L 284.04 67.229314 
L 295.2 67.226571 
L 306.36 67.229314 
L 317.52 67.237636 
L 328.68 67.251818 
L 339.84 67.272358 
L 351 67.300011 
L 362.16 67.335859 
L 373.32 67.38142 
L 384.48 67.438824 
L 395.64 67.511088 
L 406.8 67.602574 
L 417.96 67.71979 
L 429.12 67.872859 
L 440.28 68.078482 
L 451.44 68.366557 
L 461.674773 68.76 
L 462.6 68.825607 
L 473.76 70.359886 
L 484.92 75.167753 
L 488.627224 79.92 
L 488.50295 91.08 
L 486.724768 102.24 
L 484.92 111.357104 
L 484.512595 113.4 
L 482.272915 124.56 
L 480.055157 135.72 
L 477.795485 146.88 
L 475.441661 158.04 
L 473.76 165.736496 
L 473.021937 169.2 
L 470.636888 180.36 
L 468.108592 191.52 
L 465.385278 202.68 
L 462.6 213.191601 
L 462.428902 213.84 
L 459.430797 225 
L 456.13679 236.16 
L 452.478044 247.32 
L 451.44 250.331804 
L 448.558865 258.48 
L 444.227586 269.64 
L 440.28 278.776356 
L 439.355326 280.8 
L 433.968613 291.96 
L 429.12 300.896219 
L 427.806877 303.12 
L 420.772805 314.28 
L 417.96 318.387499 
L 412.547936 325.44 
L 406.8 332.369219 
L 402.763921 336.6 
L 395.64 343.663017 
L 390.756145 347.76 
L 384.48 352.839104 
L 375.326999 358.92 
L 373.32 360.229995 
L 362.16 366.29146 
L 353.218211 370.08 
L 351 371.031183 
L 339.84 374.839786 
L 328.68 377.630559 
L 317.52 379.538608 
L 306.36 380.651012 
L 295.2 381.016572 
L 284.04 380.651012 
L 272.88 379.538608 
L 261.72 377.630559 
L 250.56 374.839786 
L 239.4 371.031182 
z
" style="fill:#69cd5b;"/>
   </g>
   <g id="PathCollection_10">
    <path clip-path="url(#p18e734dcea)" d="M 83.16 504 
L 94.32 504 
L 105.48 504 
L 116.64 504 
L 127.8 504 
L 138.96 504 
L 150.12 504 
L 161.28 504 
L 172.44 504 
L 183.6 504 
L 194.76 504 
L 205.92 504 
L 217.08 504 
L 228.24 504 
L 239.4 504 
L 250.56 504 
L 261.72 504 
L 272.88 504 
L 284.04 504 
L 295.2 504 
L 306.36 504 
L 317.52 504 
L 328.68 504 
L 339.84 504 
L 351 504 
L 362.16 504 
L 373.32 504 
L 384.48 504 
L 395.64 504 
L 406.8 504 
L 417.96 504 
L 429.12 504 
L 440.28 504 
L 451.44 504 
L 462.6 504 
L 473.76 504 
L 484.92 504 
L 496.08 504 
L 507.24 504 
L 518.4 504 
L 518.4 492.84 
L 518.4 481.68 
L 518.4 470.52 
L 518.4 459.36 
L 518.4 448.2 
L 518.4 437.04 
L 518.4 425.88 
L 518.4 414.72 
L 518.4 403.56 
L 518.4 392.4 
L 518.4 381.24 
L 518.4 370.08 
L 518.4 358.92 
L 518.4 347.76 
L 518.4 336.6 
L 518.4 325.44 
L 518.4 314.28 
L 518.4 303.12 
L 518.4 291.96 
L 518.4 280.8 
L 518.4 269.64 
L 518.4 258.48 
L 518.4 247.32 
L 518.4 236.16 
L 518.4 225 
L 518.4 213.84 
L 518.4 202.68 
L 518.4 191.52 
L 518.4 180.36 
L 518.4 169.2 
L 518.4 158.04 
L 518.4 146.88 
L 518.4 135.72 
L 518.4 124.56 
L 518.4 113.4 
L 518.4 102.24 
L 518.4 91.08 
L 518.4 79.92 
L 518.4 68.76 
L 518.4 57.6 
L 507.24 57.6 
L 496.08 57.6 
L 484.92 57.6 
L 473.76 57.6 
L 462.6 57.6 
L 451.44 57.6 
L 440.28 57.6 
L 429.12 57.6 
L 417.96 57.6 
L 406.8 57.6 
L 395.64 57.6 
L 384.48 57.6 
L 373.32 57.6 
L 362.16 57.6 
L 351 57.6 
L 339.84 57.6 
L 328.68 57.6 
L 317.52 57.6 
L 306.36 57.6 
L 295.2 57.6 
L 284.04 57.6 
L 272.88 57.6 
L 261.72 57.6 
L 250.56 57.6 
L 239.4 57.6 
L 228.24 57.6 
L 217.08 57.6 
L 205.92 57.6 
L 194.76 57.6 
L 183.6 57.6 
L 172.44 57.6 
L 161.28 57.6 
L 150.12 57.6 
L 138.96 57.6 
L 127.8 57.6 
L 116.64 57.6 
L 105.48 57.6 
L 94.32 57.6 
L 83.16 57.6 
L 72 57.6 
L 72 68.76 
L 72 79.92 
L 72 91.08 
L 72 102.24 
L 72 113.4 
L 72 124.56 
L 72 135.72 
L 72 146.88 
L 72 158.04 
L 72 169.2 
L 72 180.36 
L 72 191.52 
L 72 202.68 
L 72 213.84 
L 72 225 
L 72 236.16 
L 72 247.32 
L 72 258.48 
L 72 269.64 
L 72 280.8 
L 72 291.96 
L 72 303.12 
L 72 314.28 
L 72 325.44 
L 72 336.6 
L 72 347.76 
L 72 358.92 
L 72 370.08 
L 72 381.24 
L 72 392.4 
L 72 403.56 
L 72 414.72 
L 72 425.88 
L 72 437.04 
L 72 448.2 
L 72 459.36 
L 72 470.52 
L 72 481.68 
L 72 492.84 
L 72 504 
z
M 72 492.84 
L 72 481.68 
L 72 470.52 
L 83.16 470.215163 
L 83.300895 470.52 
L 94.32 481.544668 
L 94.452882 481.68 
L 105.48 492.838928 
L 105.482261 492.84 
L 105.48 504 
L 94.32 504 
L 83.16 504 
z
M 484.917739 492.84 
L 484.92 492.838928 
L 495.947119 481.68 
L 496.08 481.544668 
L 507.099105 470.52 
L 507.24 470.215164 
L 518.4 470.52 
L 518.4 481.68 
L 518.4 492.84 
L 507.24 504 
L 496.08 504 
L 484.92 504 
z
M 248.366733 414.72 
L 239.4 412.615623 
L 228.24 409.182635 
L 217.08 404.704585 
L 214.715731 403.56 
L 205.92 399.3184 
L 194.76 392.437623 
L 194.707377 392.4 
L 183.6 384.158226 
L 180.327986 381.24 
L 172.44 373.739472 
L 169.125622 370.08 
L 161.28 360.561383 
L 160.075799 358.92 
L 152.528101 347.76 
L 150.12 343.778413 
L 146.097777 336.6 
L 140.631278 325.44 
L 138.96 321.691703 
L 135.773276 314.28 
L 131.525704 303.12 
L 127.878481 291.96 
L 127.8 291.70957 
L 124.344257 280.8 
L 121.259965 269.64 
L 118.550491 258.48 
L 116.64 249.779641 
L 116.062295 247.32 
L 113.553223 236.16 
L 111.309216 225 
L 109.283998 213.84 
L 107.437369 202.68 
L 105.733003 191.52 
L 105.48 189.865309 
L 103.824221 180.36 
L 101.995772 169.2 
L 100.278537 158.04 
L 98.64063 146.88 
L 97.045851 135.72 
L 95.446181 124.56 
L 94.32 117.232348 
L 93.630019 113.4 
L 91.53035 102.24 
L 89.523211 91.08 
L 87.747314 79.92 
L 88.102223 68.76 
L 94.32 65.950881 
L 105.48 64.242895 
L 116.64 63.554271 
L 127.8 63.198495 
L 138.96 62.983279 
L 150.12 62.839241 
L 161.28 62.73643 
L 172.44 62.659895 
L 183.6 62.601287 
L 194.76 62.555544 
L 205.92 62.519412 
L 217.08 62.49071 
L 228.24 62.467929 
L 239.4 62.450006 
L 250.56 62.436179 
L 261.72 62.425909 
L 272.88 62.418818 
L 284.04 62.414657 
L 295.2 62.413286 
L 306.36 62.414657 
L 317.52 62.418818 
L 328.68 62.425909 
L 339.84 62.436179 
L 351 62.450006 
L 362.16 62.467929 
L 373.32 62.49071 
L 384.48 62.519412 
L 395.64 62.555544 
L 406.8 62.601287 
L 417.96 62.659895 
L 429.12 62.73643 
L 440.28 62.839241 
L 451.44 62.983279 
L 462.6 63.198495 
L 473.76 63.554271 
L 484.92 64.242895 
L 496.08 65.950881 
L 502.297777 68.76 
L 502.652686 79.92 
L 500.876789 91.08 
L 498.86965 102.24 
L 496.769981 113.4 
L 496.08 117.232348 
L 494.95382 124.56 
L 493.354149 135.72 
L 491.75937 146.88 
L 490.121463 158.04 
L 488.404228 169.2 
L 486.575779 180.36 
L 484.92 189.865309 
L 484.666997 191.52 
L 482.962631 202.68 
L 481.116002 213.84 
L 479.090785 225 
L 476.846778 236.16 
L 474.337706 247.32 
L 473.76 249.779642 
L 471.849509 258.48 
L 469.140035 269.64 
L 466.055743 280.8 
L 462.6 291.709571 
L 462.52152 291.96 
L 458.874297 303.12 
L 454.626725 314.28 
L 451.44 321.691705 
L 449.768722 325.44 
L 444.302224 336.6 
L 440.28 343.778414 
L 437.8719 347.76 
L 430.324202 358.92 
L 429.12 360.561384 
L 421.27438 370.08 
L 417.96 373.739474 
L 410.072015 381.24 
L 406.8 384.158227 
L 395.692624 392.4 
L 395.64 392.437624 
L 384.48 399.3184 
L 375.684271 403.56 
L 373.32 404.704586 
L 362.16 409.182636 
L 351 412.615623 
L 342.033269 414.72 
L 339.84 415.262469 
L 328.68 417.362665 
L 317.52 418.793441 
L 306.36 419.625556 
L 295.2 419.898668 
L 284.04 419.625556 
L 272.88 418.793441 
L 261.72 417.362665 
L 250.56 415.262468 
z
" style="fill:#a5db36;"/>
   </g>
   <g id="PathCollection_11">
    <path clip-path="url(#p18e734dcea)" d="M 83.16 504 
L 94.32 504 
L 105.48 504 
L 105.482261 492.84 
L 105.48 492.838928 
L 94.452882 481.68 
L 94.32 481.544668 
L 83.300895 470.52 
L 83.16 470.215163 
L 72 470.52 
L 72 481.68 
L 72 492.84 
z
" style="fill:#e2e418;"/>
    <path clip-path="url(#p18e734dcea)" d="M 484.92 504 
L 496.08 504 
L 507.24 504 
L 518.4 492.84 
L 518.4 481.68 
L 518.4 470.52 
L 507.24 470.215164 
L 507.099105 470.52 
L 496.08 481.544668 
L 495.947119 481.68 
L 484.92 492.838928 
L 484.917739 492.84 
z
" style="fill:#e2e418;"/>
   </g>
   <g id="patch_3">
    <path d="M 518.4 504 
L 518.4 57.6 
" style="fill:none;stroke:#000000;stroke-linecap:square;stroke-linejoin:miter;"/>
   </g>
   <g id="patch_4">
    <path d="M 72 504 
L 72 57.6 
" style="fill:none;stroke:#000000;stroke-linecap:square;stroke-linejoin:miter;"/>
   </g>
   <g id="patch_5">
    <path d="M 72 504 
L 518.4 504 
" style="fill:none;stroke:#000000;stroke-linecap:square;stroke-linejoin:miter;"/>
   </g>
   <g id="patch_6">
    <path d="M 72 57.6 
L 518.4 57.6 
" style="fill:none;stroke:#000000;stroke-linecap:square;stroke-linejoin:miter;"/>
   </g>
   <g id="matplotlib.axis_1">
    <g id="xtick_1">
     <g id="line2d_1">
      <defs>
       <path d="M 0 0 
L 0 -4 
" id="m6fd8241a16" style="stroke:#000000;stroke-width:0.5;"/>
      </defs>
      <g>
       <use style="stroke:#000000;stroke-width:0.5;" x="72.0" xlink:href="#m6fd8241a16" y="504.0"/>
      </g>
     </g>
     <g id="line2d_2">
      <defs>
       <path d="M 0 0 
L 0 4 
" id="m48791d345c" style="stroke:#000000;stroke-width:0.5;"/>
      </defs>
      <g>
       <use style="stroke:#000000;stroke-width:0.5;" x="72.0" xlink:href="#m48791d345c" y="57.6"/>
      </g>
     </g>
     <g id="text_1">
      <!-- 0.0 -->
      <defs>
       <path d="M 31.78125 66.40625 
Q 24.171875 66.40625 20.328125 58.90625 
Q 16.5 51.421875 16.5 36.375 
Q 16.5 21.390625 20.328125 13.890625 
Q 24.171875 6.390625 31.78125 6.390625 
Q 39.453125 6.390625 43.28125 13.890625 
Q 47.125 21.390625 47.125 36.375 
Q 47.125 51.421875 43.28125 58.90625 
Q 39.453125 66.40625 31.78125 66.40625 
M 31.78125 74.21875 
Q 44.046875 74.21875 50.515625 64.515625 
Q 56.984375 54.828125 56.984375 36.375 
Q 56.984375 17.96875 50.515625 8.265625 
Q 44.046875 -1.421875 31.78125 -1.421875 
Q 19.53125 -1.421875 13.0625 8.265625 
Q 6.59375 17.96875 6.59375 36.375 
Q 6.59375 54.828125 13.0625 64.515625 
Q 19.53125 74.21875 31.78125 74.21875 
" id="BitstreamVeraSans-Roman-30"/>
       <path d="M 10.6875 12.40625 
L 21 12.40625 
L 21 0 
L 10.6875 0 
z
" id="BitstreamVeraSans-Roman-2e"/>
      </defs>
      <g transform="translate(64.0484375 515.5984375)scale(0.1 -0.1)">
       <use xlink:href="#BitstreamVeraSans-Roman-30"/>
       <use x="63.623046875" xlink:href="#BitstreamVeraSans-Roman-2e"/>
       <use x="95.41015625" xlink:href="#BitstreamVeraSans-Roman-30"/>
      </g>
     </g>
    </g>
    <g id="xtick_2">
     <g id="line2d_3">
      <g>
       <use style="stroke:#000000;stroke-width:0.5;" x="161.28" xlink:href="#m6fd8241a16" y="504.0"/>
      </g>
     </g>
     <g id="line2d_4">
      <g>
       <use style="stroke:#000000;stroke-width:0.5;" x="161.28" xlink:href="#m48791d345c" y="57.6"/>
      </g>
     </g>
     <g id="text_2">
      <!-- 0.2 -->
      <defs>
       <path d="M 19.1875 8.296875 
L 53.609375 8.296875 
L 53.609375 0 
L 7.328125 0 
L 7.328125 8.296875 
Q 12.9375 14.109375 22.625 23.890625 
Q 32.328125 33.6875 34.8125 36.53125 
Q 39.546875 41.84375 41.421875 45.53125 
Q 43.3125 49.21875 43.3125 52.78125 
Q 43.3125 58.59375 39.234375 62.25 
Q 35.15625 65.921875 28.609375 65.921875 
Q 23.96875 65.921875 18.8125 64.3125 
Q 13.671875 62.703125 7.8125 59.421875 
L 7.8125 69.390625 
Q 13.765625 71.78125 18.9375 73 
Q 24.125 74.21875 28.421875 74.21875 
Q 39.75 74.21875 46.484375 68.546875 
Q 53.21875 62.890625 53.21875 53.421875 
Q 53.21875 48.921875 51.53125 44.890625 
Q 49.859375 40.875 45.40625 35.40625 
Q 44.1875 33.984375 37.640625 27.21875 
Q 31.109375 20.453125 19.1875 8.296875 
" id="BitstreamVeraSans-Roman-32"/>
      </defs>
      <g transform="translate(153.3284375 515.5984375)scale(0.1 -0.1)">
       <use xlink:href="#BitstreamVeraSans-Roman-30"/>
       <use x="63.623046875" xlink:href="#BitstreamVeraSans-Roman-2e"/>
       <use x="95.41015625" xlink:href="#BitstreamVeraSans-Roman-32"/>
      </g>
     </g>
    </g>
    <g id="xtick_3">
     <g id="line2d_5">
      <g>
       <use style="stroke:#000000;stroke-width:0.5;" x="250.56" xlink:href="#m6fd8241a16" y="504.0"/>
      </g>
     </g>
     <g id="line2d_6">
      <g>
       <use style="stroke:#000000;stroke-width:0.5;" x="250.56" xlink:href="#m48791d345c" y="57.6"/>
      </g>
     </g>
     <g id="text_3">
      <!-- 0.4 -->
      <defs>
       <path d="M 37.796875 64.3125 
L 12.890625 25.390625 
L 37.796875 25.390625 
z
M 35.203125 72.90625 
L 47.609375 72.90625 
L 47.609375 25.390625 
L 58.015625 25.390625 
L 58.015625 17.1875 
L 47.609375 17.1875 
L 47.609375 0 
L 37.796875 0 
L 37.796875 17.1875 
L 4.890625 17.1875 
L 4.890625 26.703125 
z
" id="BitstreamVeraSans-Roman-34"/>
      </defs>
      <g transform="translate(242.6084375 515.5984375)scale(0.1 -0.1)">
       <use xlink:href="#BitstreamVeraSans-Roman-30"/>
       <use x="63.623046875" xlink:href="#BitstreamVeraSans-Roman-2e"/>
       <use x="95.41015625" xlink:href="#BitstreamVeraSans-Roman-34"/>
      </g>
     </g>
    </g>
    <g id="xtick_4">
     <g id="line2d_7">
      <g>
       <use style="stroke:#000000;stroke-width:0.5;" x="339.84" xlink:href="#m6fd8241a16" y="504.0"/>
      </g>
     </g>
     <g id="line2d_8">
      <g>
       <use style="stroke:#000000;stroke-width:0.5;" x="339.84" xlink:href="#m48791d345c" y="57.6"/>
      </g>
     </g>
     <g id="text_4">
      <!-- 0.6 -->
      <defs>
       <path d="M 33.015625 40.375 
Q 26.375 40.375 22.484375 35.828125 
Q 18.609375 31.296875 18.609375 23.390625 
Q 18.609375 15.53125 22.484375 10.953125 
Q 26.375 6.390625 33.015625 6.390625 
Q 39.65625 6.390625 43.53125 10.953125 
Q 47.40625 15.53125 47.40625 23.390625 
Q 47.40625 31.296875 43.53125 35.828125 
Q 39.65625 40.375 33.015625 40.375 
M 52.59375 71.296875 
L 52.59375 62.3125 
Q 48.875 64.0625 45.09375 64.984375 
Q 41.3125 65.921875 37.59375 65.921875 
Q 27.828125 65.921875 22.671875 59.328125 
Q 17.53125 52.734375 16.796875 39.40625 
Q 19.671875 43.65625 24.015625 45.921875 
Q 28.375 48.1875 33.59375 48.1875 
Q 44.578125 48.1875 50.953125 41.515625 
Q 57.328125 34.859375 57.328125 23.390625 
Q 57.328125 12.15625 50.6875 5.359375 
Q 44.046875 -1.421875 33.015625 -1.421875 
Q 20.359375 -1.421875 13.671875 8.265625 
Q 6.984375 17.96875 6.984375 36.375 
Q 6.984375 53.65625 15.1875 63.9375 
Q 23.390625 74.21875 37.203125 74.21875 
Q 40.921875 74.21875 44.703125 73.484375 
Q 48.484375 72.75 52.59375 71.296875 
" id="BitstreamVeraSans-Roman-36"/>
      </defs>
      <g transform="translate(331.8884375 515.5984375)scale(0.1 -0.1)">
       <use xlink:href="#BitstreamVeraSans-Roman-30"/>
       <use x="63.623046875" xlink:href="#BitstreamVeraSans-Roman-2e"/>
       <use x="95.41015625" xlink:href="#BitstreamVeraSans-Roman-36"/>
      </g>
     </g>
    </g>
    <g id="xtick_5">
     <g id="line2d_9">
      <g>
       <use style="stroke:#000000;stroke-width:0.5;" x="429.12" xlink:href="#m6fd8241a16" y="504.0"/>
      </g>
     </g>
     <g id="line2d_10">
      <g>
       <use style="stroke:#000000;stroke-width:0.5;" x="429.12" xlink:href="#m48791d345c" y="57.6"/>
      </g>
     </g>
     <g id="text_5">
      <!-- 0.8 -->
      <defs>
       <path d="M 31.78125 34.625 
Q 24.75 34.625 20.71875 30.859375 
Q 16.703125 27.09375 16.703125 20.515625 
Q 16.703125 13.921875 20.71875 10.15625 
Q 24.75 6.390625 31.78125 6.390625 
Q 38.8125 6.390625 42.859375 10.171875 
Q 46.921875 13.96875 46.921875 20.515625 
Q 46.921875 27.09375 42.890625 30.859375 
Q 38.875 34.625 31.78125 34.625 
M 21.921875 38.8125 
Q 15.578125 40.375 12.03125 44.71875 
Q 8.5 49.078125 8.5 55.328125 
Q 8.5 64.0625 14.71875 69.140625 
Q 20.953125 74.21875 31.78125 74.21875 
Q 42.671875 74.21875 48.875 69.140625 
Q 55.078125 64.0625 55.078125 55.328125 
Q 55.078125 49.078125 51.53125 44.71875 
Q 48 40.375 41.703125 38.8125 
Q 48.828125 37.15625 52.796875 32.3125 
Q 56.78125 27.484375 56.78125 20.515625 
Q 56.78125 9.90625 50.3125 4.234375 
Q 43.84375 -1.421875 31.78125 -1.421875 
Q 19.734375 -1.421875 13.25 4.234375 
Q 6.78125 9.90625 6.78125 20.515625 
Q 6.78125 27.484375 10.78125 32.3125 
Q 14.796875 37.15625 21.921875 38.8125 
M 18.3125 54.390625 
Q 18.3125 48.734375 21.84375 45.5625 
Q 25.390625 42.390625 31.78125 42.390625 
Q 38.140625 42.390625 41.71875 45.5625 
Q 45.3125 48.734375 45.3125 54.390625 
Q 45.3125 60.0625 41.71875 63.234375 
Q 38.140625 66.40625 31.78125 66.40625 
Q 25.390625 66.40625 21.84375 63.234375 
Q 18.3125 60.0625 18.3125 54.390625 
" id="BitstreamVeraSans-Roman-38"/>
      </defs>
      <g transform="translate(421.1684375 515.5984375)scale(0.1 -0.1)">
       <use xlink:href="#BitstreamVeraSans-Roman-30"/>
       <use x="63.623046875" xlink:href="#BitstreamVeraSans-Roman-2e"/>
       <use x="95.41015625" xlink:href="#BitstreamVeraSans-Roman-38"/>
      </g>
     </g>
    </g>
    <g id="xtick_6">
     <g id="line2d_11">
      <g>
       <use style="stroke:#000000;stroke-width:0.5;" x="518.4" xlink:href="#m6fd8241a16" y="504.0"/>
      </g>
     </g>
     <g id="line2d_12">
      <g>
       <use style="stroke:#000000;stroke-width:0.5;" x="518.4" xlink:href="#m48791d345c" y="57.6"/>
      </g>
     </g>
     <g id="text_6">
      <!-- 1.0 -->
      <defs>
       <path d="M 12.40625 8.296875 
L 28.515625 8.296875 
L 28.515625 63.921875 
L 10.984375 60.40625 
L 10.984375 69.390625 
L 28.421875 72.90625 
L 38.28125 72.90625 
L 38.28125 8.296875 
L 54.390625 8.296875 
L 54.390625 0 
L 12.40625 0 
z
" id="BitstreamVeraSans-Roman-31"/>
      </defs>
      <g transform="translate(510.4484375 515.5984375)scale(0.1 -0.1)">
       <use xlink:href="#BitstreamVeraSans-Roman-31"/>
       <use x="63.623046875" xlink:href="#BitstreamVeraSans-Roman-2e"/>
       <use x="95.41015625" xlink:href="#BitstreamVeraSans-Roman-30"/>
      </g>
     </g>
    </g>
   </g>
   <g id="matplotlib.axis_2">
    <g id="ytick_1">
     <g id="line2d_13">
      <defs>
       <path d="M 0 0 
L 4 0 
" id="m1ef0013351" style="stroke:#000000;stroke-width:0.5;"/>
      </defs>
      <g>
       <use style="stroke:#000000;stroke-width:0.5;" x="72.0" xlink:href="#m1ef0013351" y="504.0"/>
      </g>
     </g>
     <g id="line2d_14">
      <defs>
       <path d="M 0 0 
L -4 0 
" id="m2b48af741d" style="stroke:#000000;stroke-width:0.5;"/>
      </defs>
      <g>
       <use style="stroke:#000000;stroke-width:0.5;" x="518.4" xlink:href="#m2b48af741d" y="504.0"/>
      </g>
     </g>
     <g id="text_7">
      <!-- 0.0 -->
      <g transform="translate(52.096875 506.759375)scale(0.1 -0.1)">
       <use xlink:href="#BitstreamVeraSans-Roman-30"/>
       <use x="63.623046875" xlink:href="#BitstreamVeraSans-Roman-2e"/>
       <use x="95.41015625" xlink:href="#BitstreamVeraSans-Roman-30"/>
      </g>
     </g>
    </g>
    <g id="ytick_2">
     <g id="line2d_15">
      <g>
       <use style="stroke:#000000;stroke-width:0.5;" x="72.0" xlink:href="#m1ef0013351" y="414.72"/>
      </g>
     </g>
     <g id="line2d_16">
      <g>
       <use style="stroke:#000000;stroke-width:0.5;" x="518.4" xlink:href="#m2b48af741d" y="414.72"/>
      </g>
     </g>
     <g id="text_8">
      <!-- 0.2 -->
      <g transform="translate(52.096875 417.479375)scale(0.1 -0.1)">
       <use xlink:href="#BitstreamVeraSans-Roman-30"/>
       <use x="63.623046875" xlink:href="#BitstreamVeraSans-Roman-2e"/>
       <use x="95.41015625" xlink:href="#BitstreamVeraSans-Roman-32"/>
      </g>
     </g>
    </g>
    <g id="ytick_3">
     <g id="line2d_17">
      <g>
       <use style="stroke:#000000;stroke-width:0.5;" x="72.0" xlink:href="#m1ef0013351" y="325.44"/>
      </g>
     </g>
     <g id="line2d_18">
      <g>
       <use style="stroke:#000000;stroke-width:0.5;" x="518.4" xlink:href="#m2b48af741d" y="325.44"/>
      </g>
     </g>
     <g id="text_9">
      <!-- 0.4 -->
      <g transform="translate(52.096875 328.199375)scale(0.1 -0.1)">
       <use xlink:href="#BitstreamVeraSans-Roman-30"/>
       <use x="63.623046875" xlink:href="#BitstreamVeraSans-Roman-2e"/>
       <use x="95.41015625" xlink:href="#BitstreamVeraSans-Roman-34"/>
      </g>
     </g>
    </g>
    <g id="ytick_4">
     <g id="line2d_19">
      <g>
       <use style="stroke:#000000;stroke-width:0.5;" x="72.0" xlink:href="#m1ef0013351" y="236.16"/>
      </g>
     </g>
     <g id="line2d_20">
      <g>
       <use style="stroke:#000000;stroke-width:0.5;" x="518.4" xlink:href="#m2b48af741d" y="236.16"/>
      </g>
     </g>
     <g id="text_10">
      <!-- 0.6 -->
      <g transform="translate(52.096875 238.919375)scale(0.1 -0.1)">
       <use xlink:href="#BitstreamVeraSans-Roman-30"/>
       <use x="63.623046875" xlink:href="#BitstreamVeraSans-Roman-2e"/>
       <use x="95.41015625" xlink:href="#BitstreamVeraSans-Roman-36"/>
      </g>
     </g>
    </g>
    <g id="ytick_5">
     <g id="line2d_21">
      <g>
       <use style="stroke:#000000;stroke-width:0.5;" x="72.0" xlink:href="#m1ef0013351" y="146.88"/>
      </g>
     </g>
     <g id="line2d_22">
      <g>
       <use style="stroke:#000000;stroke-width:0.5;" x="518.4" xlink:href="#m2b48af741d" y="146.88"/>
      </g>
     </g>
     <g id="text_11">
      <!-- 0.8 -->
      <g transform="translate(52.096875 149.639375)scale(0.1 -0.1)">
       <use xlink:href="#BitstreamVeraSans-Roman-30"/>
       <use x="63.623046875" xlink:href="#BitstreamVeraSans-Roman-2e"/>
       <use x="95.41015625" xlink:href="#BitstreamVeraSans-Roman-38"/>
      </g>
     </g>
    </g>
    <g id="ytick_6">
     <g id="line2d_23">
      <g>
       <use style="stroke:#000000;stroke-width:0.5;" x="72.0" xlink:href="#m1ef0013351" y="57.6"/>
      </g>
     </g>
     <g id="line2d_24">
      <g>
       <use style="stroke:#000000;stroke-width:0.5;" x="518.4" xlink:href="#m2b48af741d" y="57.6"/>
      </g>
     </g>
     <g id="text_12">
      <!-- 1.0 -->
      <g transform="translate(52.096875 60.359375)scale(0.1 -0.1)">
       <use xlink:href="#BitstreamVeraSans-Roman-31"/>
       <use x="63.623046875" xlink:href="#BitstreamVeraSans-Roman-2e"/>
       <use x="95.41015625" xlink:href="#BitstreamVeraSans-Roman-30"/>
      </g>
     </g>
    </g>
   </g>
  </g>
 </g>
 <defs>
  <clipPath id="p18e734dcea">
   <rect height="446.4" width="446.4" x="72.0" y="57.6"/>
  </clipPath>
 </defs>
</svg>
