<?xml version="1.0" encoding="utf-8" standalone="no"?>
<!DOCTYPE svg PUBLIC "-//W3C//DTD SVG 1.1//EN"
  "http://www.w3.org/Graphics/SVG/1.1/DTD/svg11.dtd">
<!-- Created with matplotlib (http://matplotlib.org/) -->
<svg height="576pt" version="1.1" viewBox="0 0 576 576" width="576pt" xmlns="http://www.w3.org/2000/svg" xmlns:xlink="http://www.w3.org/1999/xlink">
 <defs>
  <style type="text/css">
*{stroke-linecap:butt;stroke-linejoin:round;}
  </style>
 </defs>
 <g id="figure_1">
  <g id="patch_1">
   <path d="
M0 576
L576 576
L576 0
L0 0
z
" style="fill:#ffffff;"/>
  </g>
  <g id="axes_1">
   <g id="patch_2">
    <path d="
M72 504
L518.4 504
L518.4 57.6
L72 57.6
z
" style="fill:#ffffff;"/>
   </g>
   <g id="LineCollection_1">
    <defs>
     <path d="
M265.44 -396.922
L262.743 -399.36
L255.162 -414.24
L261.344 -429.12
L265.44 -431.269
L280.32 -435.486
L295.2 -436.773
L310.08 -435.486
L324.96 -431.269
L329.056 -429.12
L335.239 -414.24
L327.657 -399.36
L324.96 -396.922
L310.08 -388.547
L295.2 -385.633
L280.32 -388.547
L265.44 -396.922" id="C0_0_b08b78c82d"/>
    </defs>
    <g clip-path="url(#p621aff4130)">
     <use style="fill:none;stroke:#000080;" x="0.0" xlink:href="#C0_0_b08b78c82d" y="576.0"/>
    </g>
   </g>
   <g id="LineCollection_2">
    <defs>
     <path d="
M265.44 -367.678
L261.993 -369.6
L250.56 -377.235
L242.661 -384.48
L235.68 -392.875
L231.32 -399.36
L225.162 -414.24
L224.838 -429.12
L235.68 -443.431
L236.385 -444
L250.56 -448.874
L265.44 -451.91
L280.32 -453.525
L295.2 -454.033
L310.08 -453.525
L324.96 -451.91
L339.84 -448.874
L354.015 -444
L354.72 -443.431
L365.562 -429.12
L365.238 -414.24
L359.08 -399.36
L354.72 -392.875
L347.739 -384.48
L339.84 -377.235
L328.407 -369.6
L324.96 -367.678
L310.08 -362.697
L295.2 -361.037
L280.32 -362.697
L265.44 -367.678" id="C1_0_78fad79f02"/>
    </defs>
    <g clip-path="url(#p621aff4130)">
     <use style="fill:none;stroke:#0000df;" x="0.0" xlink:href="#C1_0_78fad79f02" y="576.0"/>
    </g>
   </g>
   <g id="LineCollection_3">
    <defs>
     <path d="
M250.56 -354.66
L250.475 -354.72
L235.68 -366.25
L232.352 -369.6
L220.8 -383.024
L219.764 -384.48
L211.124 -399.36
L205.92 -411.752
L204.993 -414.24
L202.758 -429.12
L205.92 -442.75
L206.349 -444
L220.8 -454.791
L230.262 -458.88
L235.68 -460.113
L250.56 -462.402
L265.44 -463.826
L280.32 -464.608
L295.2 -464.858
L310.08 -464.608
L324.96 -463.826
L339.84 -462.402
L354.72 -460.113
L360.138 -458.88
L369.6 -454.791
L384.051 -444
L384.48 -442.751
L387.642 -429.12
L385.407 -414.24
L384.48 -411.752
L379.276 -399.36
L370.636 -384.48
L369.6 -383.024
L358.048 -369.6
L354.72 -366.25
L339.925 -354.72
L339.84 -354.66
L324.96 -347.257
L310.08 -342.884
L295.2 -341.437
L280.32 -342.884
L265.44 -347.257
L250.56 -354.66" id="C2_0_7147ff373c"/>
    </defs>
    <g clip-path="url(#p621aff4130)">
     <use style="fill:none;stroke:#0028ff;" x="0.0" xlink:href="#C2_0_7147ff373c" y="576.0"/>
    </g>
   </g>
   <g id="LineCollection_4">
    <defs>
     <path d="
M280.32 -324.884
L280.022 -324.96
L265.44 -328.808
L250.56 -335.517
L243.871 -339.84
L235.68 -345.526
L225.589 -354.72
L220.8 -359.541
L212.677 -369.6
L205.92 -379.101
L202.662 -384.48
L194.986 -399.36
L191.04 -409.094
L189.164 -414.24
L185.887 -429.12
L186.179 -444
L191.04 -453.287
L195.716 -458.88
L205.92 -463.606
L220.8 -467.87
L235.68 -470.521
L250.56 -472.206
L265.44 -473.249
L278.718 -473.76
L280.32 -473.803
L295.2 -473.934
L310.08 -473.803
L311.682 -473.76
L324.96 -473.249
L339.84 -472.206
L354.72 -470.521
L369.6 -467.871
L384.48 -463.606
L394.684 -458.88
L399.36 -453.287
L404.221 -444
L404.513 -429.12
L401.236 -414.24
L399.36 -409.094
L395.414 -399.36
L387.738 -384.48
L384.48 -379.101
L377.723 -369.6
L369.6 -359.542
L364.811 -354.72
L354.72 -345.526
L346.529 -339.84
L339.84 -335.517
L324.96 -328.808
L310.378 -324.96
L310.08 -324.884
L295.2 -323.623
L280.32 -324.884" id="C3_0_22c61160aa"/>
    </defs>
    <g clip-path="url(#p621aff4130)">
     <use style="fill:none;stroke:#007cff;" x="0.0" xlink:href="#C3_0_22c61160aa" y="576.0"/>
    </g>
   </g>
   <g id="LineCollection_5">
    <defs>
     <path d="
M280.32 -307.487
L269.48 -310.08
L265.44 -311.06
L250.56 -317.195
L237.708 -324.96
L235.68 -326.246
L220.8 -338.75
L219.766 -339.84
L206.663 -354.72
L205.92 -355.646
L196.505 -369.6
L191.04 -378.694
L188.011 -384.48
L181.176 -399.36
L176.16 -412.334
L175.491 -414.24
L171.708 -429.12
L170.133 -444
L173.456 -458.88
L176.16 -461.866
L191.04 -471.474
L197.335 -473.76
L205.92 -475.409
L220.8 -477.346
L235.68 -478.643
L250.56 -479.512
L265.44 -480.069
L280.32 -480.382
L295.2 -480.483
L310.08 -480.382
L324.96 -480.069
L339.84 -479.512
L354.72 -478.643
L369.6 -477.346
L384.48 -475.409
L393.065 -473.76
L399.36 -471.474
L414.24 -461.866
L416.944 -458.88
L420.267 -444
L418.692 -429.12
L414.909 -414.24
L414.24 -412.334
L409.224 -399.36
L402.389 -384.48
L399.36 -378.694
L393.895 -369.6
L384.48 -355.646
L383.736 -354.72
L370.634 -339.84
L369.6 -338.75
L354.72 -326.246
L352.692 -324.96
L339.84 -317.195
L324.96 -311.06
L320.92 -310.08
L310.08 -307.487
L295.2 -306.317
L280.32 -307.487" id="C4_0_8c2f654e8c"/>
    </defs>
    <g clip-path="url(#p621aff4130)">
     <use style="fill:none;stroke:#00d4ff;" x="0.0" xlink:href="#C4_0_8c2f654e8c" y="576.0"/>
    </g>
   </g>
   <g id="LineCollection_6">
    <defs>
     <path d="
M265.44 -293.265
L260.331 -295.2
L250.56 -298.93
L235.68 -307.267
L231.91 -310.08
L220.8 -318.729
L214.517 -324.96
L205.92 -334.053
L201.412 -339.84
L191.04 -354.34
L190.807 -354.72
L182.306 -369.6
L176.16 -381.622
L174.861 -384.48
L168.753 -399.36
L163.427 -414.24
L161.28 -421.578
L159.23 -429.12
L156.629 -444
L156.833 -458.88
L161.28 -467.887
L166.363 -473.76
L176.16 -477.73
L191.04 -481.276
L205.92 -483.424
L220.8 -484.809
L235.68 -485.731
L250.56 -486.347
L265.44 -486.741
L280.32 -486.961
L295.2 -487.032
L310.08 -486.961
L324.96 -486.741
L339.84 -486.347
L354.72 -485.731
L369.6 -484.809
L384.48 -483.424
L399.36 -481.276
L414.24 -477.73
L424.037 -473.76
L429.12 -467.887
L433.568 -458.88
L433.771 -444
L431.17 -429.12
L429.12 -421.578
L426.973 -414.24
L421.648 -399.36
L415.539 -384.48
L414.24 -381.622
L408.094 -369.6
L399.593 -354.72
L399.36 -354.34
L388.988 -339.84
L384.48 -334.053
L375.883 -324.96
L369.6 -318.73
L358.49 -310.08
L354.72 -307.267
L339.84 -298.93
L330.068 -295.2
L324.96 -293.265
L310.08 -289.944
L295.2 -288.86
L280.32 -289.944
L265.44 -293.265" id="C5_0_dc1184ccfd"/>
    </defs>
    <g clip-path="url(#p621aff4130)">
     <use style="fill:none;stroke:#36ffc1;" x="0.0" xlink:href="#C5_0_dc1184ccfd" y="576.0"/>
    </g>
   </g>
   <g id="LineCollection_7">
    <defs>
     <path d="
M250.56 -280.183
L250.29 -280.32
L235.68 -287.813
L225.21 -295.2
L220.8 -298.415
L208.355 -310.08
L205.92 -312.493
L195.636 -324.96
L191.04 -330.985
L185.296 -339.84
L176.541 -354.72
L176.16 -355.41
L169.244 -369.6
L162.758 -384.48
L161.28 -388.158
L157.174 -399.36
L152.305 -414.24
L148.022 -429.12
L146.4 -436.228
L144.72 -444
L143.166 -458.88
L145.892 -473.76
L146.4 -474.344
L161.28 -483.753
L176.16 -487.914
L180.592 -488.64
L191.04 -489.616
L205.92 -490.57
L220.8 -491.233
L235.68 -491.699
L250.56 -492.022
L265.44 -492.235
L280.32 -492.356
L295.2 -492.396
L310.08 -492.356
L324.96 -492.235
L339.84 -492.022
L354.72 -491.699
L369.6 -491.233
L384.48 -490.57
L399.36 -489.616
L409.808 -488.64
L414.24 -487.914
L429.12 -483.753
L444 -474.344
L444.508 -473.76
L447.234 -458.88
L445.68 -444
L444 -436.228
L442.378 -429.12
L438.095 -414.24
L433.226 -399.36
L429.12 -388.158
L427.642 -384.48
L421.156 -369.6
L414.24 -355.41
L413.859 -354.72
L405.104 -339.84
L399.36 -330.985
L394.764 -324.96
L384.48 -312.493
L382.045 -310.08
L369.6 -298.415
L365.19 -295.2
L354.72 -287.813
L340.11 -280.32
L339.84 -280.183
L324.96 -274.862
L310.08 -271.808
L295.2 -270.811
L280.32 -271.807
L265.44 -274.862
L250.56 -280.183" id="C6_0_7d5b295503"/>
    </defs>
    <g clip-path="url(#p621aff4130)">
     <use style="fill:none;stroke:#7aff7d;" x="0.0" xlink:href="#C6_0_7d5b295503" y="576.0"/>
    </g>
   </g>
   <g id="LineCollection_8">
    <defs>
     <path d="
M250.56 -260.238
L239.708 -265.44
L235.68 -267.373
L220.8 -277.062
L216.921 -280.32
L205.92 -289.961
L201.111 -295.2
L191.04 -306.95
L188.787 -310.08
L178.81 -324.96
L176.16 -329.235
L170.403 -339.84
L163.14 -354.72
L161.28 -358.799
L156.809 -369.6
L151.218 -384.48
L146.4 -398.558
L146.143 -399.36
L141.665 -414.24
L137.656 -429.12
L134.107 -444
L131.52 -457.807
L131.327 -458.88
L130.934 -473.76
L131.52 -475.302
L142.022 -488.64
L146.4 -490.057
L161.28 -492.838
L176.16 -494.425
L191.04 -495.425
L205.92 -496.095
L220.8 -496.56
L235.68 -496.886
L250.56 -497.113
L265.44 -497.261
L280.32 -497.346
L295.2 -497.374
L310.08 -497.346
L324.96 -497.261
L339.84 -497.113
L354.72 -496.886
L369.6 -496.56
L384.48 -496.095
L399.36 -495.425
L414.24 -494.425
L429.12 -492.838
L444 -490.057
L448.378 -488.64
L458.88 -475.302
L459.466 -473.76
L459.073 -458.88
L458.88 -457.807
L456.293 -444
L452.744 -429.12
L448.735 -414.24
L444.257 -399.36
L444 -398.558
L439.182 -384.48
L433.591 -369.6
L429.12 -358.799
L427.26 -354.72
L419.997 -339.84
L414.24 -329.235
L411.59 -324.96
L401.613 -310.08
L399.36 -306.95
L389.289 -295.2
L384.48 -289.961
L373.479 -280.32
L369.6 -277.063
L354.72 -267.373
L350.692 -265.44
L339.84 -260.238
L324.96 -255.42
L310.08 -252.659
L295.2 -251.759
L280.32 -252.659
L265.44 -255.42
L250.56 -260.238" id="C7_0_c0e4978090"/>
    </defs>
    <g clip-path="url(#p621aff4130)">
     <use style="fill:none;stroke:#c1ff36;" x="0.0" xlink:href="#C7_0_c0e4978090" y="576.0"/>
    </g>
   </g>
   <g id="LineCollection_9">
    <defs>
     <path d="
M265.44 -234.387
L261.089 -235.68
L250.56 -238.712
L235.68 -245.092
L226.442 -250.56
L220.8 -253.939
L206.29 -265.44
L205.92 -265.745
L191.79 -280.32
L191.04 -281.146
L180.389 -295.2
L176.16 -301.34
L170.933 -310.08
L162.953 -324.96
L161.28 -328.3
L156.053 -339.84
L150.034 -354.72
L146.4 -364.559
L144.65 -369.6
L139.801 -384.48
L135.42 -399.36
L131.52 -413.6
L131.35 -414.24
L127.564 -429.12
L124.14 -444
L121.113 -458.88
L119 -473.76
L121.451 -488.64
L131.52 -494.532
L146.4 -498.063
L161.28 -499.722
L176.16 -500.653
L191.04 -501.234
L205.92 -501.62
L220.8 -501.887
L235.68 -502.074
L250.56 -502.203
L265.44 -502.288
L280.32 -502.336
L295.2 -502.351
L310.08 -502.336
L324.96 -502.288
L339.84 -502.203
L354.72 -502.074
L369.6 -501.887
L384.48 -501.62
L399.36 -501.234
L414.24 -500.653
L429.12 -499.722
L444 -498.063
L458.88 -494.532
L468.949 -488.64
L471.4 -473.76
L469.287 -458.88
L466.26 -444
L462.836 -429.12
L459.05 -414.24
L458.88 -413.6
L454.98 -399.36
L450.599 -384.48
L445.75 -369.6
L444 -364.558
L440.366 -354.72
L434.347 -339.84
L429.12 -328.3
L427.447 -324.96
L419.466 -310.08
L414.24 -301.34
L410.011 -295.2
L399.36 -281.146
L398.61 -280.32
L384.48 -265.745
L384.109 -265.44
L369.6 -253.939
L363.958 -250.56
L354.72 -245.092
L339.84 -238.712
L329.311 -235.68
L324.96 -234.388
L310.08 -231.785
L295.2 -230.938
L280.32 -231.785
L265.44 -234.387" id="C8_0_24e16dae55"/>
    </defs>
    <g clip-path="url(#p621aff4130)">
     <use style="fill:none;stroke:#ffe600;" x="0.0" xlink:href="#C8_0_24e16dae55" y="576.0"/>
    </g>
   </g>
   <g id="LineCollection_10">
    <defs>
     <path d="
M235.68 -220.328
L234.761 -220.8
L220.8 -227.971
L209.737 -235.68
L205.92 -238.414
L192.656 -250.56
L191.04 -252.128
L179.77 -265.44
L176.16 -270.115
L169.397 -280.32
L161.28 -294.307
L160.815 -295.2
L153.495 -310.08
L147.249 -324.96
L146.4 -327.099
L141.637 -339.84
L136.725 -354.72
L132.372 -369.6
L131.52 -372.618
L128.224 -384.48
L124.443 -399.36
L120.97 -414.24
L117.67 -429.12
L116.64 -433.734
L114.354 -444
L111.276 -458.88
L108.63 -473.76
L107.555 -488.64
L116.64 -500.299
L125.886 -503.52
L131.52 -504.102
L146.4 -504.948
L161.28 -505.454
L176.16 -505.789
L191.04 -506.022
L205.92 -506.19
L220.8 -506.314
L235.68 -506.404
L250.56 -506.468
L265.44 -506.511
L280.32 -506.536
L295.2 -506.544
L310.08 -506.536
L324.96 -506.511
L339.84 -506.468
L354.72 -506.404
L369.6 -506.314
L384.48 -506.19
L399.36 -506.022
L414.24 -505.789
L429.12 -505.454
L444 -504.948
L458.88 -504.102
L464.514 -503.52
L473.76 -500.299
L482.845 -488.64
L481.77 -473.76
L479.124 -458.88
L476.046 -444
L473.76 -433.734
L472.73 -429.12
L469.43 -414.24
L465.957 -399.36
L462.176 -384.48
L458.88 -372.618
L458.028 -369.6
L453.675 -354.72
L448.763 -339.84
L444 -327.099
L443.151 -324.96
L436.905 -310.08
L429.585 -295.2
L429.12 -294.307
L421.003 -280.32
L414.24 -270.115
L410.63 -265.44
L399.36 -252.128
L397.744 -250.56
L384.48 -238.414
L380.663 -235.68
L369.6 -227.971
L355.639 -220.8
L354.72 -220.328
L339.84 -214.532
L324.96 -210.704
L310.08 -208.521
L295.2 -207.811
L280.32 -208.521
L265.44 -210.704
L250.56 -214.532
L235.68 -220.328" id="C9_0_7499f71f8d"/>
    </defs>
    <g clip-path="url(#p621aff4130)">
     <use style="fill:none;stroke:#ff9800;" x="0.0" xlink:href="#C9_0_7499f71f8d" y="576.0"/>
    </g>
   </g>
   <g id="LineCollection_11">
    <defs>
     <path d="
M250.56 -186.329
L236.201 -191.04
L235.68 -191.205
L220.8 -197.521
L206.69 -205.92
L205.92 -206.386
L191.04 -217.806
L187.928 -220.8
L176.16 -233.096
L174.094 -235.68
L163.291 -250.56
L161.28 -253.631
L154.432 -265.44
L147.169 -280.32
L146.4 -282.013
L140.787 -295.2
L135.406 -310.08
L131.52 -322.471
L130.741 -324.96
L126.335 -339.84
L122.522 -354.72
L119.163 -369.6
L116.64 -381.798
L116.045 -384.48
L112.817 -399.36
L109.882 -414.24
L107.142 -429.12
L104.481 -444
L101.76 -458.728
L101.729 -458.88
L98.68 -473.76
L96.3511 -488.64
L98.3941 -503.52
L101.76 -505.041
L116.64 -507.77
L131.52 -508.868
L146.4 -509.432
L161.28 -509.77
L176.16 -509.992
L191.04 -510.148
L205.92 -510.26
L220.8 -510.343
L235.68 -510.403
L250.56 -510.445
L265.44 -510.474
L280.32 -510.491
L295.2 -510.496
L310.08 -510.491
L324.96 -510.474
L339.84 -510.445
L354.72 -510.403
L369.6 -510.343
L384.48 -510.26
L399.36 -510.148
L414.24 -509.992
L429.12 -509.77
L444 -509.432
L458.88 -508.868
L473.76 -507.77
L488.64 -505.041
L492.006 -503.52
L494.049 -488.64
L491.72 -473.76
L488.671 -458.88
L488.64 -458.728
L485.919 -444
L483.258 -429.12
L480.518 -414.24
L477.583 -399.36
L474.355 -384.48
L473.76 -381.797
L471.237 -369.6
L467.878 -354.72
L464.065 -339.84
L459.659 -324.96
L458.88 -322.471
L454.994 -310.08
L449.613 -295.2
L444 -282.013
L443.231 -280.32
L435.968 -265.44
L429.12 -253.631
L427.109 -250.56
L416.306 -235.68
L414.24 -233.096
L402.471 -220.8
L399.36 -217.806
L384.48 -206.386
L383.709 -205.92
L369.6 -197.521
L354.72 -191.205
L354.198 -191.04
L339.84 -186.329
L324.96 -183.107
L310.08 -181.275
L295.2 -180.679
L280.32 -181.275
L265.44 -183.107
L250.56 -186.329" id="Ca_0_983c3ad60b"/>
    </defs>
    <g clip-path="url(#p621aff4130)">
     <use style="fill:none;stroke:#ff4700;" x="0.0" xlink:href="#Ca_0_983c3ad60b" y="576.0"/>
    </g>
   </g>
   <g id="LineCollection_12">
    <defs>
     <path d="
M220.8 -158.591
L214.535 -161.28
L205.92 -164.9
L191.04 -173.39
L187.205 -176.16
L176.16 -184.603
L169.504 -191.04
L161.28 -199.933
L156.611 -205.92
L146.807 -220.8
L146.4 -221.483
L138.697 -235.68
L132.372 -250.56
L131.52 -252.769
L126.699 -265.44
L122.028 -280.32
L118.198 -295.2
L116.64 -301.96
L114.588 -310.08
L111.226 -324.96
L108.369 -339.84
L105.904 -354.72
L103.739 -369.6
L101.797 -384.48
L101.76 -384.759
L99.2921 -399.36
L97.0105 -414.24
L94.9028 -429.12
L92.9015 -444
L90.9181 -458.88
L88.8034 -473.76
L86.88 -485.192
L86.0544 -488.64
L84.1836 -503.52
L86.88 -506.216
L101.76 -511.72
L116.64 -513.085
L131.52 -513.634
L146.4 -513.916
L161.28 -514.085
L176.16 -514.196
L191.04 -514.274
L205.92 -514.33
L220.8 -514.371
L235.68 -514.401
L250.56 -514.423
L265.44 -514.437
L280.32 -514.445
L295.2 -514.448
L310.08 -514.445
L324.96 -514.437
L339.84 -514.423
L354.72 -514.401
L369.6 -514.371
L384.48 -514.33
L399.36 -514.274
L414.24 -514.196
L429.12 -514.085
L444 -513.916
L458.88 -513.634
L473.76 -513.085
L488.64 -511.72
L503.52 -506.216
L506.216 -503.52
L504.346 -488.64
L503.52 -485.192
L501.597 -473.76
L499.482 -458.88
L497.499 -444
L495.497 -429.12
L493.39 -414.24
L491.108 -399.36
L488.64 -384.759
L488.603 -384.48
L486.661 -369.6
L484.496 -354.72
L482.031 -339.84
L479.174 -324.96
L475.812 -310.08
L473.76 -301.96
L472.202 -295.2
L468.372 -280.32
L463.701 -265.44
L458.88 -252.77
L458.028 -250.56
L451.703 -235.68
L444 -221.483
L443.593 -220.8
L433.789 -205.92
L429.12 -199.933
L420.895 -191.04
L414.24 -184.603
L403.195 -176.16
L399.36 -173.39
L384.48 -164.9
L375.864 -161.28
L369.6 -158.591
L354.72 -153.766
L339.84 -150.43
L324.96 -148.243
L310.08 -147.003
L295.2 -146.6
L280.32 -147.003
L265.44 -148.243
L250.56 -150.43
L235.68 -153.765
L220.8 -158.591" id="Cb_0_bb76b1b588"/>
    </defs>
    <g clip-path="url(#p621aff4130)">
     <use style="fill:none;stroke:#df0000;" x="0.0" xlink:href="#Cb_0_bb76b1b588" y="576.0"/>
    </g>
   </g>
   <g id="LineCollection_13">
    <defs>
     <path d="
M86.88 -72
L101.76 -72
L102.781 -86.88
L101.76 -87.4928
L87.6073 -101.76
L86.88 -103.021
L72 -101.76
L72 -86.88
L86.88 -72" id="Cc_0_cd474d2d97"/>
     <path d="
M488.64 -72
L503.52 -72
L518.4 -86.88
L518.4 -101.76
L503.52 -103.02
L502.793 -101.76
L488.64 -87.4921
L487.62 -86.88
L488.64 -72" id="Cc_1_fd2bbcbaac"/>
    </defs>
    <g clip-path="url(#p621aff4130)">
     <use style="fill:none;stroke:#800000;" x="0.0" xlink:href="#Cc_0_cd474d2d97" y="576.0"/>
    </g>
    <g clip-path="url(#p621aff4130)">
     <use style="fill:none;stroke:#800000;" x="0.0" xlink:href="#Cc_1_fd2bbcbaac" y="576.0"/>
    </g>
   </g>
   <g id="patch_3">
    <path d="
M72 57.6
L518.4 57.6" style="fill:none;stroke:#000000;stroke-linecap:square;stroke-linejoin:miter;"/>
   </g>
   <g id="patch_4">
    <path d="
M518.4 504
L518.4 57.6" style="fill:none;stroke:#000000;stroke-linecap:square;stroke-linejoin:miter;"/>
   </g>
   <g id="patch_5">
    <path d="
M72 504
L518.4 504" style="fill:none;stroke:#000000;stroke-linecap:square;stroke-linejoin:miter;"/>
   </g>
   <g id="patch_6">
    <path d="
M72 504
L72 57.6" style="fill:none;stroke:#000000;stroke-linecap:square;stroke-linejoin:miter;"/>
   </g>
   <g id="matplotlib.axis_1">
    <g id="xtick_1">
     <g id="line2d_1">
      <defs>
       <path d="
M0 0
L0 -4" id="m93b0483c22" style="stroke:#000000;stroke-width:0.5;"/>
      </defs>
      <g>
       <use style="stroke:#000000;stroke-width:0.5;" x="72.0" xlink:href="#m93b0483c22" y="504.0"/>
      </g>
     </g>
     <g id="line2d_2">
      <defs>
       <path d="
M0 0
L0 4" id="m741efc42ff" style="stroke:#000000;stroke-width:0.5;"/>
      </defs>
      <g>
       <use style="stroke:#000000;stroke-width:0.5;" x="72.0" xlink:href="#m741efc42ff" y="57.6"/>
      </g>
     </g>
     <g id="text_1">
      <!-- 0.0 -->
      <defs>
       <path d="
M31.7812 66.4062
Q24.1719 66.4062 20.3281 58.9062
Q16.5 51.4219 16.5 36.375
Q16.5 21.3906 20.3281 13.8906
Q24.1719 6.39062 31.7812 6.39062
Q39.4531 6.39062 43.2812 13.8906
Q47.125 21.3906 47.125 36.375
Q47.125 51.4219 43.2812 58.9062
Q39.4531 66.4062 31.7812 66.4062
M31.7812 74.2188
Q44.0469 74.2188 50.5156 64.5156
Q56.9844 54.8281 56.9844 36.375
Q56.9844 17.9688 50.5156 8.26562
Q44.0469 -1.42188 31.7812 -1.42188
Q19.5312 -1.42188 13.0625 8.26562
Q6.59375 17.9688 6.59375 36.375
Q6.59375 54.8281 13.0625 64.5156
Q19.5312 74.2188 31.7812 74.2188" id="BitstreamVeraSans-Roman-30"/>
       <path d="
M10.6875 12.4062
L21 12.4062
L21 0
L10.6875 0
z
" id="BitstreamVeraSans-Roman-2e"/>
      </defs>
      <g transform="translate(64.71015625 515.5984375)scale(0.1 -0.1)">
       <use xlink:href="#BitstreamVeraSans-Roman-30"/>
       <use x="63.623046875" xlink:href="#BitstreamVeraSans-Roman-2e"/>
       <use x="95.41015625" xlink:href="#BitstreamVeraSans-Roman-30"/>
      </g>
     </g>
    </g>
    <g id="xtick_2">
     <g id="line2d_3">
      <g>
       <use style="stroke:#000000;stroke-width:0.5;" x="161.28" xlink:href="#m93b0483c22" y="504.0"/>
      </g>
     </g>
     <g id="line2d_4">
      <g>
       <use style="stroke:#000000;stroke-width:0.5;" x="161.28" xlink:href="#m741efc42ff" y="57.6"/>
      </g>
     </g>
     <g id="text_2">
      <!-- 0.2 -->
      <defs>
       <path d="
M19.1875 8.29688
L53.6094 8.29688
L53.6094 0
L7.32812 0
L7.32812 8.29688
Q12.9375 14.1094 22.625 23.8906
Q32.3281 33.6875 34.8125 36.5312
Q39.5469 41.8438 41.4219 45.5312
Q43.3125 49.2188 43.3125 52.7812
Q43.3125 58.5938 39.2344 62.25
Q35.1562 65.9219 28.6094 65.9219
Q23.9688 65.9219 18.8125 64.3125
Q13.6719 62.7031 7.8125 59.4219
L7.8125 69.3906
Q13.7656 71.7812 18.9375 73
Q24.125 74.2188 28.4219 74.2188
Q39.75 74.2188 46.4844 68.5469
Q53.2188 62.8906 53.2188 53.4219
Q53.2188 48.9219 51.5312 44.8906
Q49.8594 40.875 45.4062 35.4062
Q44.1875 33.9844 37.6406 27.2188
Q31.1094 20.4531 19.1875 8.29688" id="BitstreamVeraSans-Roman-32"/>
      </defs>
      <g transform="translate(154.15890625 515.5984375)scale(0.1 -0.1)">
       <use xlink:href="#BitstreamVeraSans-Roman-30"/>
       <use x="63.623046875" xlink:href="#BitstreamVeraSans-Roman-2e"/>
       <use x="95.41015625" xlink:href="#BitstreamVeraSans-Roman-32"/>
      </g>
     </g>
    </g>
    <g id="xtick_3">
     <g id="line2d_5">
      <g>
       <use style="stroke:#000000;stroke-width:0.5;" x="250.56" xlink:href="#m93b0483c22" y="504.0"/>
      </g>
     </g>
     <g id="line2d_6">
      <g>
       <use style="stroke:#000000;stroke-width:0.5;" x="250.56" xlink:href="#m741efc42ff" y="57.6"/>
      </g>
     </g>
     <g id="text_3">
      <!-- 0.4 -->
      <defs>
       <path d="
M37.7969 64.3125
L12.8906 25.3906
L37.7969 25.3906
z

M35.2031 72.9062
L47.6094 72.9062
L47.6094 25.3906
L58.0156 25.3906
L58.0156 17.1875
L47.6094 17.1875
L47.6094 0
L37.7969 0
L37.7969 17.1875
L4.89062 17.1875
L4.89062 26.7031
z
" id="BitstreamVeraSans-Roman-34"/>
      </defs>
      <g transform="translate(243.21859375 515.5984375)scale(0.1 -0.1)">
       <use xlink:href="#BitstreamVeraSans-Roman-30"/>
       <use x="63.623046875" xlink:href="#BitstreamVeraSans-Roman-2e"/>
       <use x="95.41015625" xlink:href="#BitstreamVeraSans-Roman-34"/>
      </g>
     </g>
    </g>
    <g id="xtick_4">
     <g id="line2d_7">
      <g>
       <use style="stroke:#000000;stroke-width:0.5;" x="339.84" xlink:href="#m93b0483c22" y="504.0"/>
      </g>
     </g>
     <g id="line2d_8">
      <g>
       <use style="stroke:#000000;stroke-width:0.5;" x="339.84" xlink:href="#m741efc42ff" y="57.6"/>
      </g>
     </g>
     <g id="text_4">
      <!-- 0.6 -->
      <defs>
       <path d="
M33.0156 40.375
Q26.375 40.375 22.4844 35.8281
Q18.6094 31.2969 18.6094 23.3906
Q18.6094 15.5312 22.4844 10.9531
Q26.375 6.39062 33.0156 6.39062
Q39.6562 6.39062 43.5312 10.9531
Q47.4062 15.5312 47.4062 23.3906
Q47.4062 31.2969 43.5312 35.8281
Q39.6562 40.375 33.0156 40.375
M52.5938 71.2969
L52.5938 62.3125
Q48.875 64.0625 45.0938 64.9844
Q41.3125 65.9219 37.5938 65.9219
Q27.8281 65.9219 22.6719 59.3281
Q17.5312 52.7344 16.7969 39.4062
Q19.6719 43.6562 24.0156 45.9219
Q28.375 48.1875 33.5938 48.1875
Q44.5781 48.1875 50.9531 41.5156
Q57.3281 34.8594 57.3281 23.3906
Q57.3281 12.1562 50.6875 5.35938
Q44.0469 -1.42188 33.0156 -1.42188
Q20.3594 -1.42188 13.6719 8.26562
Q6.98438 17.9688 6.98438 36.375
Q6.98438 53.6562 15.1875 63.9375
Q23.3906 74.2188 37.2031 74.2188
Q40.9219 74.2188 44.7031 73.4844
Q48.4844 72.75 52.5938 71.2969" id="BitstreamVeraSans-Roman-36"/>
      </defs>
      <g transform="translate(332.53296875 515.5984375)scale(0.1 -0.1)">
       <use xlink:href="#BitstreamVeraSans-Roman-30"/>
       <use x="63.623046875" xlink:href="#BitstreamVeraSans-Roman-2e"/>
       <use x="95.41015625" xlink:href="#BitstreamVeraSans-Roman-36"/>
      </g>
     </g>
    </g>
    <g id="xtick_5">
     <g id="line2d_9">
      <g>
       <use style="stroke:#000000;stroke-width:0.5;" x="429.12" xlink:href="#m93b0483c22" y="504.0"/>
      </g>
     </g>
     <g id="line2d_10">
      <g>
       <use style="stroke:#000000;stroke-width:0.5;" x="429.12" xlink:href="#m741efc42ff" y="57.6"/>
      </g>
     </g>
     <g id="text_5">
      <!-- 0.8 -->
      <defs>
       <path d="
M31.7812 34.625
Q24.75 34.625 20.7188 30.8594
Q16.7031 27.0938 16.7031 20.5156
Q16.7031 13.9219 20.7188 10.1562
Q24.75 6.39062 31.7812 6.39062
Q38.8125 6.39062 42.8594 10.1719
Q46.9219 13.9688 46.9219 20.5156
Q46.9219 27.0938 42.8906 30.8594
Q38.875 34.625 31.7812 34.625
M21.9219 38.8125
Q15.5781 40.375 12.0312 44.7188
Q8.5 49.0781 8.5 55.3281
Q8.5 64.0625 14.7188 69.1406
Q20.9531 74.2188 31.7812 74.2188
Q42.6719 74.2188 48.875 69.1406
Q55.0781 64.0625 55.0781 55.3281
Q55.0781 49.0781 51.5312 44.7188
Q48 40.375 41.7031 38.8125
Q48.8281 37.1562 52.7969 32.3125
Q56.7812 27.4844 56.7812 20.5156
Q56.7812 9.90625 50.3125 4.23438
Q43.8438 -1.42188 31.7812 -1.42188
Q19.7344 -1.42188 13.25 4.23438
Q6.78125 9.90625 6.78125 20.5156
Q6.78125 27.4844 10.7812 32.3125
Q14.7969 37.1562 21.9219 38.8125
M18.3125 54.3906
Q18.3125 48.7344 21.8438 45.5625
Q25.3906 42.3906 31.7812 42.3906
Q38.1406 42.3906 41.7188 45.5625
Q45.3125 48.7344 45.3125 54.3906
Q45.3125 60.0625 41.7188 63.2344
Q38.1406 66.4062 31.7812 66.4062
Q25.3906 66.4062 21.8438 63.2344
Q18.3125 60.0625 18.3125 54.3906" id="BitstreamVeraSans-Roman-38"/>
      </defs>
      <g transform="translate(421.8403125 515.5984375)scale(0.1 -0.1)">
       <use xlink:href="#BitstreamVeraSans-Roman-30"/>
       <use x="63.623046875" xlink:href="#BitstreamVeraSans-Roman-2e"/>
       <use x="95.41015625" xlink:href="#BitstreamVeraSans-Roman-38"/>
      </g>
     </g>
    </g>
    <g id="xtick_6">
     <g id="line2d_11">
      <g>
       <use style="stroke:#000000;stroke-width:0.5;" x="518.4" xlink:href="#m93b0483c22" y="504.0"/>
      </g>
     </g>
     <g id="line2d_12">
      <g>
       <use style="stroke:#000000;stroke-width:0.5;" x="518.4" xlink:href="#m741efc42ff" y="57.6"/>
      </g>
     </g>
     <g id="text_6">
      <!-- 1.0 -->
      <defs>
       <path d="
M12.4062 8.29688
L28.5156 8.29688
L28.5156 63.9219
L10.9844 60.4062
L10.9844 69.3906
L28.4219 72.9062
L38.2812 72.9062
L38.2812 8.29688
L54.3906 8.29688
L54.3906 0
L12.4062 0
z
" id="BitstreamVeraSans-Roman-31"/>
      </defs>
      <g transform="translate(511.3296875 515.5984375)scale(0.1 -0.1)">
       <use xlink:href="#BitstreamVeraSans-Roman-31"/>
       <use x="63.623046875" xlink:href="#BitstreamVeraSans-Roman-2e"/>
       <use x="95.41015625" xlink:href="#BitstreamVeraSans-Roman-30"/>
      </g>
     </g>
    </g>
   </g>
   <g id="matplotlib.axis_2">
    <g id="ytick_1">
     <g id="line2d_13">
      <defs>
       <path d="
M0 0
L4 0" id="m728421d6d4" style="stroke:#000000;stroke-width:0.5;"/>
      </defs>
      <g>
       <use style="stroke:#000000;stroke-width:0.5;" x="72.0" xlink:href="#m728421d6d4" y="504.0"/>
      </g>
     </g>
     <g id="line2d_14">
      <defs>
       <path d="
M0 0
L-4 0" id="mcb0005524f" style="stroke:#000000;stroke-width:0.5;"/>
      </defs>
      <g>
       <use style="stroke:#000000;stroke-width:0.5;" x="518.4" xlink:href="#mcb0005524f" y="504.0"/>
      </g>
     </g>
     <g id="text_7">
      <!-- 0.0 -->
      <g transform="translate(53.4203125 506.759375)scale(0.1 -0.1)">
       <use xlink:href="#BitstreamVeraSans-Roman-30"/>
       <use x="63.623046875" xlink:href="#BitstreamVeraSans-Roman-2e"/>
       <use x="95.41015625" xlink:href="#BitstreamVeraSans-Roman-30"/>
      </g>
     </g>
    </g>
    <g id="ytick_2">
     <g id="line2d_15">
      <g>
       <use style="stroke:#000000;stroke-width:0.5;" x="72.0" xlink:href="#m728421d6d4" y="414.72"/>
      </g>
     </g>
     <g id="line2d_16">
      <g>
       <use style="stroke:#000000;stroke-width:0.5;" x="518.4" xlink:href="#mcb0005524f" y="414.72"/>
      </g>
     </g>
     <g id="text_8">
      <!-- 0.2 -->
      <g transform="translate(53.7578125 417.479375)scale(0.1 -0.1)">
       <use xlink:href="#BitstreamVeraSans-Roman-30"/>
       <use x="63.623046875" xlink:href="#BitstreamVeraSans-Roman-2e"/>
       <use x="95.41015625" xlink:href="#BitstreamVeraSans-Roman-32"/>
      </g>
     </g>
    </g>
    <g id="ytick_3">
     <g id="line2d_17">
      <g>
       <use style="stroke:#000000;stroke-width:0.5;" x="72.0" xlink:href="#m728421d6d4" y="325.44"/>
      </g>
     </g>
     <g id="line2d_18">
      <g>
       <use style="stroke:#000000;stroke-width:0.5;" x="518.4" xlink:href="#mcb0005524f" y="325.44"/>
      </g>
     </g>
     <g id="text_9">
      <!-- 0.4 -->
      <g transform="translate(53.3171875 328.199375)scale(0.1 -0.1)">
       <use xlink:href="#BitstreamVeraSans-Roman-30"/>
       <use x="63.623046875" xlink:href="#BitstreamVeraSans-Roman-2e"/>
       <use x="95.41015625" xlink:href="#BitstreamVeraSans-Roman-34"/>
      </g>
     </g>
    </g>
    <g id="ytick_4">
     <g id="line2d_19">
      <g>
       <use style="stroke:#000000;stroke-width:0.5;" x="72.0" xlink:href="#m728421d6d4" y="236.16"/>
      </g>
     </g>
     <g id="line2d_20">
      <g>
       <use style="stroke:#000000;stroke-width:0.5;" x="518.4" xlink:href="#mcb0005524f" y="236.16"/>
      </g>
     </g>
     <g id="text_10">
      <!-- 0.6 -->
      <g transform="translate(53.3859375 238.919375)scale(0.1 -0.1)">
       <use xlink:href="#BitstreamVeraSans-Roman-30"/>
       <use x="63.623046875" xlink:href="#BitstreamVeraSans-Roman-2e"/>
       <use x="95.41015625" xlink:href="#BitstreamVeraSans-Roman-36"/>
      </g>
     </g>
    </g>
    <g id="ytick_5">
     <g id="line2d_21">
      <g>
       <use style="stroke:#000000;stroke-width:0.5;" x="72.0" xlink:href="#m728421d6d4" y="146.88"/>
      </g>
     </g>
     <g id="line2d_22">
      <g>
       <use style="stroke:#000000;stroke-width:0.5;" x="518.4" xlink:href="#mcb0005524f" y="146.88"/>
      </g>
     </g>
     <g id="text_11">
      <!-- 0.8 -->
      <g transform="translate(53.440625 149.639375)scale(0.1 -0.1)">
       <use xlink:href="#BitstreamVeraSans-Roman-30"/>
       <use x="63.623046875" xlink:href="#BitstreamVeraSans-Roman-2e"/>
       <use x="95.41015625" xlink:href="#BitstreamVeraSans-Roman-38"/>
      </g>
     </g>
    </g>
    <g id="ytick_6">
     <g id="line2d_23">
      <g>
       <use style="stroke:#000000;stroke-width:0.5;" x="72.0" xlink:href="#m728421d6d4" y="57.6"/>
      </g>
     </g>
     <g id="line2d_24">
      <g>
       <use style="stroke:#000000;stroke-width:0.5;" x="518.4" xlink:href="#mcb0005524f" y="57.6"/>
      </g>
     </g>
     <g id="text_12">
      <!-- 1.0 -->
      <g transform="translate(53.859375 60.359375)scale(0.1 -0.1)">
       <use xlink:href="#BitstreamVeraSans-Roman-31"/>
       <use x="63.623046875" xlink:href="#BitstreamVeraSans-Roman-2e"/>
       <use x="95.41015625" xlink:href="#BitstreamVeraSans-Roman-30"/>
      </g>
     </g>
    </g>
   </g>
  </g>
 </g>
 <defs>
  <clipPath id="p621aff4130">
   <rect height="446.4" width="446.4" x="72.0" y="57.6"/>
  </clipPath>
 </defs>
</svg>
