<?xml version="1.0" encoding="UTF-8" standalone="no"?>
<!-- Created with Inkscape (http://www.inkscape.org/) -->

<svg
   xmlns:dc="http://purl.org/dc/elements/1.1/"
   xmlns:cc="http://creativecommons.org/ns#"
   xmlns:rdf="http://www.w3.org/1999/02/22-rdf-syntax-ns#"
   xmlns:svg="http://www.w3.org/2000/svg"
   xmlns="http://www.w3.org/2000/svg"
   xmlns:sodipodi="http://sodipodi.sourceforge.net/DTD/sodipodi-0.dtd"
   xmlns:inkscape="http://www.inkscape.org/namespaces/inkscape"
   sodipodi:docname="solvepath.svg"
   inkscape:version="0.48.5 r10040"
   version="1.1"
   id="svg8412"
   height="584.5321"
   width="551.10492">
  <sodipodi:namedview
     id="base"
     pagecolor="#ffffff"
     bordercolor="#666666"
     borderopacity="1.0"
     inkscape:pageopacity="0.0"
     inkscape:pageshadow="2"
     inkscape:zoom="0.49497475"
     inkscape:cx="925.48896"
     inkscape:cy="216.50656"
     inkscape:document-units="px"
     inkscape:current-layer="layer1"
     showgrid="false"
     inkscape:window-width="1450"
     inkscape:window-height="899"
     inkscape:window-x="149"
     inkscape:window-y="74"
     inkscape:window-maximized="0"
     fit-margin-bottom="20"
     fit-margin-top="0"
     fit-margin-left="0"
     fit-margin-right="0" />
  <defs
     id="defs8414">
    <marker
       inkscape:stockid="Arrow1Lend"
       orient="auto"
       refY="0"
       refX="0"
       id="Arrow1Lend"
       style="overflow:visible">
      <path
         id="path10321"
         d="M 0,0 5,-5 -12.5,0 5,5 0,0 z"
         style="fill-rule:evenodd;stroke:#000000;stroke-width:1pt"
         transform="matrix(-0.8,0,0,-0.8,-10,0)"
         inkscape:connector-curvature="0" />
    </marker>
  </defs>
  <metadata
     id="metadata8417">
    <rdf:RDF>
      <cc:Work
         rdf:about="">
        <dc:format>image/svg+xml</dc:format>
        <dc:type
           rdf:resource="http://purl.org/dc/dcmitype/StillImage" />
        <dc:title></dc:title>
      </cc:Work>
    </rdf:RDF>
  </metadata>
  <g
     id="layer1"
     inkscape:groupmode="layer"
     inkscape:label="Layer 1"
     transform="translate(-8.29268,-192.10824)">
    <g
       id="g9311">
      <path
         sodipodi:type="arc"
         style="fill:none;stroke:#000000;stroke-width:9.09010983;stroke-miterlimit:4;stroke-opacity:1;stroke-dasharray:none;stroke-dashoffset:0"
         id="path8942-0"
         sodipodi:cx="171.72594"
         sodipodi:cy="110.90001"
         sodipodi:rx="54.548237"
         sodipodi:ry="54.548237"
         d="m 226.27417,110.90001 c 0,30.12616 -24.42207,54.54824 -54.54823,54.54824 -30.12616,0 -54.54824,-24.42208 -54.54824,-54.54824 0,-30.12616 24.42208,-54.548238 54.54824,-54.548238 30.12616,0 54.54823,24.422078 54.54823,54.548238 z"
         transform="matrix(0.11000967,0,0,0.11000967,76.729612,186.409)" />
      <path
         sodipodi:type="arc"
         style="fill:none;stroke:#000000;stroke-width:9.09010983;stroke-miterlimit:4;stroke-opacity:1;stroke-dasharray:none;stroke-dashoffset:0"
         id="path8942-8-3"
         sodipodi:cx="171.72594"
         sodipodi:cy="110.90001"
         sodipodi:rx="54.548237"
         sodipodi:ry="54.548237"
         d="m 226.27417,110.90001 c 0,30.12616 -24.42207,54.54824 -54.54823,54.54824 -30.12616,0 -54.54824,-24.42208 -54.54824,-54.54824 0,-30.12616 24.42208,-54.548238 54.54824,-54.548238 30.12616,0 54.54823,24.422078 54.54823,54.548238 z"
         transform="matrix(0.11000967,0,0,0.11000967,152.94223,186.409)" />
      <path
         sodipodi:type="arc"
         style="fill:none;stroke:#000000;stroke-width:9.09010983;stroke-miterlimit:4;stroke-opacity:1;stroke-dasharray:none;stroke-dashoffset:0"
         id="path8942-9-3"
         sodipodi:cx="171.72594"
         sodipodi:cy="110.90001"
         sodipodi:rx="54.548237"
         sodipodi:ry="54.548237"
         d="m 226.27417,110.90001 c 0,30.12616 -24.42207,54.54824 -54.54823,54.54824 -30.12616,0 -54.54824,-24.42208 -54.54824,-54.54824 0,-30.12616 24.42208,-54.548238 54.54824,-54.548238 30.12616,0 54.54823,24.422078 54.54823,54.548238 z"
         transform="matrix(0.11000967,0,0,0.11000967,229.15483,186.409)" />
      <path
         sodipodi:type="arc"
         style="fill:none;stroke:#000000;stroke-width:9.09010983;stroke-miterlimit:4;stroke-opacity:1;stroke-dasharray:none;stroke-dashoffset:0"
         id="path8942-1-0"
         sodipodi:cx="171.72594"
         sodipodi:cy="110.90001"
         sodipodi:rx="54.548237"
         sodipodi:ry="54.548237"
         d="m 226.27417,110.90001 c 0,30.12616 -24.42207,54.54824 -54.54823,54.54824 -30.12616,0 -54.54824,-24.42208 -54.54824,-54.54824 0,-30.12616 24.42208,-54.548238 54.54824,-54.548238 30.12616,0 54.54823,24.422078 54.54823,54.548238 z"
         transform="matrix(0.11000967,0,0,0.11000967,305.36742,186.409)" />
      <path
         sodipodi:type="arc"
         style="fill:none;stroke:#000000;stroke-width:9.09010983;stroke-miterlimit:4;stroke-opacity:1;stroke-dasharray:none;stroke-dashoffset:0"
         id="path8942-15-1"
         sodipodi:cx="171.72594"
         sodipodi:cy="110.90001"
         sodipodi:rx="54.548237"
         sodipodi:ry="54.548237"
         d="m 226.27417,110.90001 c 0,30.12616 -24.42207,54.54824 -54.54823,54.54824 -30.12616,0 -54.54824,-24.42208 -54.54824,-54.54824 0,-30.12616 24.42208,-54.548238 54.54824,-54.548238 30.12616,0 54.54823,24.422078 54.54823,54.548238 z"
         transform="matrix(0.11000967,0,0,0.11000967,381.58004,186.409)" />
      <path
         sodipodi:type="arc"
         style="fill:none;stroke:#000000;stroke-width:9.09010983;stroke-miterlimit:4;stroke-opacity:1;stroke-dasharray:none;stroke-dashoffset:0"
         id="path8942-5-4"
         sodipodi:cx="171.72594"
         sodipodi:cy="110.90001"
         sodipodi:rx="54.548237"
         sodipodi:ry="54.548237"
         d="m 226.27417,110.90001 c 0,30.12616 -24.42207,54.54824 -54.54823,54.54824 -30.12616,0 -54.54824,-24.42208 -54.54824,-54.54824 0,-30.12616 24.42208,-54.548238 54.54824,-54.548238 30.12616,0 54.54823,24.422078 54.54823,54.548238 z"
         transform="matrix(0.11000967,0,0,0.11000967,457.79267,186.409)" />
      <path
         sodipodi:type="arc"
         style="fill:none;stroke:#000000;stroke-width:9.09010983;stroke-miterlimit:4;stroke-opacity:1;stroke-dasharray:none;stroke-dashoffset:0"
         id="path8942-3-2"
         sodipodi:cx="171.72594"
         sodipodi:cy="110.90001"
         sodipodi:rx="54.548237"
         sodipodi:ry="54.548237"
         d="m 226.27417,110.90001 c 0,30.12616 -24.42207,54.54824 -54.54823,54.54824 -30.12616,0 -54.54824,-24.42208 -54.54824,-54.54824 0,-30.12616 24.42208,-54.548238 54.54824,-54.548238 30.12616,0 54.54823,24.422078 54.54823,54.548238 z"
         transform="matrix(0.11000967,0,0,0.11000967,534.00523,186.409)" />
      <path
         sodipodi:type="arc"
         style="fill:none;stroke:#000000;stroke-width:9.09010983;stroke-miterlimit:4;stroke-opacity:1;stroke-dasharray:none;stroke-dashoffset:0"
         id="path8942-0-0"
         sodipodi:cx="171.72594"
         sodipodi:cy="110.90001"
         sodipodi:rx="54.548237"
         sodipodi:ry="54.548237"
         d="m 226.27417,110.90001 c 0,30.12616 -24.42207,54.54824 -54.54823,54.54824 -30.12616,0 -54.54824,-24.42208 -54.54824,-54.54824 0,-30.12616 24.42208,-54.548238 54.54824,-54.548238 30.12616,0 54.54823,24.422078 54.54823,54.548238 z"
         transform="matrix(0.11000967,0,0,0.11000967,76.729612,263.61316)" />
      <path
         sodipodi:type="arc"
         style="fill:#000000;fill-opacity:1;stroke:#000000;stroke-width:1;stroke-miterlimit:4;stroke-opacity:1;stroke-dasharray:none;stroke-dashoffset:0"
         id="path8942-8-3-9"
         sodipodi:cx="171.72594"
         sodipodi:cy="110.90001"
         sodipodi:rx="54.548237"
         sodipodi:ry="54.548237"
         d="m 226.27417,110.90001 c 0,30.12616 -24.42207,54.54824 -54.54823,54.54824 -30.12616,0 -54.54824,-24.42208 -54.54824,-54.54824 0,-30.12616 24.42208,-54.548238 54.54824,-54.548238 30.12616,0 54.54823,24.422078 54.54823,54.548238 z"
         transform="matrix(0.11000967,0,0,0.11000967,152.94223,263.61316)" />
      <path
         sodipodi:type="arc"
         style="fill:#000000;fill-opacity:1;stroke:#000000;stroke-width:1;stroke-miterlimit:4;stroke-opacity:1;stroke-dasharray:none;stroke-dashoffset:0"
         id="path8942-9-3-5"
         sodipodi:cx="171.72594"
         sodipodi:cy="110.90001"
         sodipodi:rx="54.548237"
         sodipodi:ry="54.548237"
         d="m 226.27417,110.90001 c 0,30.12616 -24.42207,54.54824 -54.54823,54.54824 -30.12616,0 -54.54824,-24.42208 -54.54824,-54.54824 0,-30.12616 24.42208,-54.548238 54.54824,-54.548238 30.12616,0 54.54823,24.422078 54.54823,54.548238 z"
         transform="matrix(0.11000967,0,0,0.11000967,229.15483,263.61316)" />
      <path
         sodipodi:type="arc"
         style="fill:#000000;fill-opacity:1;stroke:#000000;stroke-width:1;stroke-miterlimit:4;stroke-opacity:1;stroke-dasharray:none;stroke-dashoffset:0"
         id="path8942-1-0-1"
         sodipodi:cx="171.72594"
         sodipodi:cy="110.90001"
         sodipodi:rx="54.548237"
         sodipodi:ry="54.548237"
         d="m 226.27417,110.90001 c 0,30.12616 -24.42207,54.54824 -54.54823,54.54824 -30.12616,0 -54.54824,-24.42208 -54.54824,-54.54824 0,-30.12616 24.42208,-54.548238 54.54824,-54.548238 30.12616,0 54.54823,24.422078 54.54823,54.548238 z"
         transform="matrix(0.11000967,0,0,0.11000967,305.36742,263.61316)" />
      <path
         sodipodi:type="arc"
         style="fill:#000000;fill-opacity:1;stroke:#000000;stroke-width:1;stroke-miterlimit:4;stroke-opacity:1;stroke-dasharray:none;stroke-dashoffset:0"
         id="path8942-15-1-8"
         sodipodi:cx="171.72594"
         sodipodi:cy="110.90001"
         sodipodi:rx="54.548237"
         sodipodi:ry="54.548237"
         d="m 226.27417,110.90001 c 0,30.12616 -24.42207,54.54824 -54.54823,54.54824 -30.12616,0 -54.54824,-24.42208 -54.54824,-54.54824 0,-30.12616 24.42208,-54.548238 54.54824,-54.548238 30.12616,0 54.54823,24.422078 54.54823,54.548238 z"
         transform="matrix(0.11000967,0,0,0.11000967,381.58004,263.61316)" />
      <path
         sodipodi:type="arc"
         style="fill:#000000;fill-opacity:1;stroke:#000000;stroke-width:1;stroke-miterlimit:4;stroke-opacity:1;stroke-dasharray:none;stroke-dashoffset:0"
         id="path8942-5-4-2"
         sodipodi:cx="171.72594"
         sodipodi:cy="110.90001"
         sodipodi:rx="54.548237"
         sodipodi:ry="54.548237"
         d="m 226.27417,110.90001 c 0,30.12616 -24.42207,54.54824 -54.54823,54.54824 -30.12616,0 -54.54824,-24.42208 -54.54824,-54.54824 0,-30.12616 24.42208,-54.548238 54.54824,-54.548238 30.12616,0 54.54823,24.422078 54.54823,54.548238 z"
         transform="matrix(0.11000967,0,0,0.11000967,457.79267,263.61316)" />
      <path
         sodipodi:type="arc"
         style="fill:none;stroke:#000000;stroke-width:9.09010983;stroke-miterlimit:4;stroke-opacity:1;stroke-dasharray:none;stroke-dashoffset:0"
         id="path8942-3-2-6"
         sodipodi:cx="171.72594"
         sodipodi:cy="110.90001"
         sodipodi:rx="54.548237"
         sodipodi:ry="54.548237"
         d="m 226.27417,110.90001 c 0,30.12616 -24.42207,54.54824 -54.54823,54.54824 -30.12616,0 -54.54824,-24.42208 -54.54824,-54.54824 0,-30.12616 24.42208,-54.548238 54.54824,-54.548238 30.12616,0 54.54823,24.422078 54.54823,54.548238 z"
         transform="matrix(0.11000967,0,0,0.11000967,534.00523,263.61316)" />
      <path
         sodipodi:type="arc"
         style="fill:none;stroke:#000000;stroke-width:9.09010983;stroke-miterlimit:4;stroke-opacity:1;stroke-dasharray:none;stroke-dashoffset:0"
         id="path8942-0-5"
         sodipodi:cx="171.72594"
         sodipodi:cy="110.90001"
         sodipodi:rx="54.548237"
         sodipodi:ry="54.548237"
         d="m 226.27417,110.90001 c 0,30.12616 -24.42207,54.54824 -54.54823,54.54824 -30.12616,0 -54.54824,-24.42208 -54.54824,-54.54824 0,-30.12616 24.42208,-54.548238 54.54824,-54.548238 30.12616,0 54.54823,24.422078 54.54823,54.548238 z"
         transform="matrix(0.11000967,0,0,0.11000967,76.729612,340.81741)" />
      <path
         sodipodi:type="arc"
         style="fill:#000000;fill-opacity:1;stroke:#000000;stroke-width:1;stroke-miterlimit:4;stroke-opacity:1;stroke-dasharray:none;stroke-dashoffset:0"
         id="path8942-8-3-97"
         sodipodi:cx="171.72594"
         sodipodi:cy="110.90001"
         sodipodi:rx="54.548237"
         sodipodi:ry="54.548237"
         d="m 226.27417,110.90001 c 0,30.12616 -24.42207,54.54824 -54.54823,54.54824 -30.12616,0 -54.54824,-24.42208 -54.54824,-54.54824 0,-30.12616 24.42208,-54.548238 54.54824,-54.548238 30.12616,0 54.54823,24.422078 54.54823,54.548238 z"
         transform="matrix(0.11000967,0,0,0.11000967,152.94223,340.81741)" />
      <path
         sodipodi:type="arc"
         style="fill:#000000;fill-opacity:1;stroke:#000000;stroke-width:1;stroke-miterlimit:4;stroke-opacity:1;stroke-dasharray:none;stroke-dashoffset:0"
         id="path8942-9-3-8"
         sodipodi:cx="171.72594"
         sodipodi:cy="110.90001"
         sodipodi:rx="54.548237"
         sodipodi:ry="54.548237"
         d="m 226.27417,110.90001 c 0,30.12616 -24.42207,54.54824 -54.54823,54.54824 -30.12616,0 -54.54824,-24.42208 -54.54824,-54.54824 0,-30.12616 24.42208,-54.548238 54.54824,-54.548238 30.12616,0 54.54823,24.422078 54.54823,54.548238 z"
         transform="matrix(0.11000967,0,0,0.11000967,229.15483,340.81741)" />
      <path
         sodipodi:type="arc"
         style="fill:#000000;fill-opacity:1;stroke:#000000;stroke-width:1;stroke-miterlimit:4;stroke-opacity:1;stroke-dasharray:none;stroke-dashoffset:0"
         id="path8942-1-0-4"
         sodipodi:cx="171.72594"
         sodipodi:cy="110.90001"
         sodipodi:rx="54.548237"
         sodipodi:ry="54.548237"
         d="m 226.27417,110.90001 c 0,30.12616 -24.42207,54.54824 -54.54823,54.54824 -30.12616,0 -54.54824,-24.42208 -54.54824,-54.54824 0,-30.12616 24.42208,-54.548238 54.54824,-54.548238 30.12616,0 54.54823,24.422078 54.54823,54.548238 z"
         transform="matrix(0.11000967,0,0,0.11000967,305.36742,340.81741)" />
      <path
         sodipodi:type="arc"
         style="fill:#000000;fill-opacity:1;stroke:#000000;stroke-width:1;stroke-miterlimit:4;stroke-opacity:1;stroke-dasharray:none;stroke-dashoffset:0"
         id="path8942-15-1-7"
         sodipodi:cx="171.72594"
         sodipodi:cy="110.90001"
         sodipodi:rx="54.548237"
         sodipodi:ry="54.548237"
         d="m 226.27417,110.90001 c 0,30.12616 -24.42207,54.54824 -54.54823,54.54824 -30.12616,0 -54.54824,-24.42208 -54.54824,-54.54824 0,-30.12616 24.42208,-54.548238 54.54824,-54.548238 30.12616,0 54.54823,24.422078 54.54823,54.548238 z"
         transform="matrix(0.11000967,0,0,0.11000967,381.58004,340.81741)" />
      <path
         sodipodi:type="arc"
         style="fill:#000000;fill-opacity:1;stroke:#000000;stroke-width:1;stroke-miterlimit:4;stroke-opacity:1;stroke-dasharray:none;stroke-dashoffset:0"
         id="path8942-5-4-1"
         sodipodi:cx="171.72594"
         sodipodi:cy="110.90001"
         sodipodi:rx="54.548237"
         sodipodi:ry="54.548237"
         d="m 226.27417,110.90001 c 0,30.12616 -24.42207,54.54824 -54.54823,54.54824 -30.12616,0 -54.54824,-24.42208 -54.54824,-54.54824 0,-30.12616 24.42208,-54.548238 54.54824,-54.548238 30.12616,0 54.54823,24.422078 54.54823,54.548238 z"
         transform="matrix(0.11000967,0,0,0.11000967,457.79267,340.81741)" />
      <path
         sodipodi:type="arc"
         style="fill:none;stroke:#000000;stroke-width:9.09010983;stroke-miterlimit:4;stroke-opacity:1;stroke-dasharray:none;stroke-dashoffset:0"
         id="path8942-3-2-0"
         sodipodi:cx="171.72594"
         sodipodi:cy="110.90001"
         sodipodi:rx="54.548237"
         sodipodi:ry="54.548237"
         d="m 226.27417,110.90001 c 0,30.12616 -24.42207,54.54824 -54.54823,54.54824 -30.12616,0 -54.54824,-24.42208 -54.54824,-54.54824 0,-30.12616 24.42208,-54.548238 54.54824,-54.548238 30.12616,0 54.54823,24.422078 54.54823,54.548238 z"
         transform="matrix(0.11000967,0,0,0.11000967,534.00523,340.81741)" />
      <path
         sodipodi:type="arc"
         style="fill:none;stroke:#000000;stroke-width:9.09010983;stroke-miterlimit:4;stroke-opacity:1;stroke-dasharray:none;stroke-dashoffset:0"
         id="path8942-0-2"
         sodipodi:cx="171.72594"
         sodipodi:cy="110.90001"
         sodipodi:rx="54.548237"
         sodipodi:ry="54.548237"
         d="m 226.27417,110.90001 c 0,30.12616 -24.42207,54.54824 -54.54823,54.54824 -30.12616,0 -54.54824,-24.42208 -54.54824,-54.54824 0,-30.12616 24.42208,-54.548238 54.54824,-54.548238 30.12616,0 54.54823,24.422078 54.54823,54.548238 z"
         transform="matrix(0.11000967,0,0,0.11000967,76.729612,418.02155)" />
      <path
         sodipodi:type="arc"
         style="fill:#000000;fill-opacity:1;stroke:#000000;stroke-width:1;stroke-miterlimit:4;stroke-opacity:1;stroke-dasharray:none;stroke-dashoffset:0"
         id="path8942-8-3-3"
         sodipodi:cx="171.72594"
         sodipodi:cy="110.90001"
         sodipodi:rx="54.548237"
         sodipodi:ry="54.548237"
         d="m 226.27417,110.90001 c 0,30.12616 -24.42207,54.54824 -54.54823,54.54824 -30.12616,0 -54.54824,-24.42208 -54.54824,-54.54824 0,-30.12616 24.42208,-54.548238 54.54824,-54.548238 30.12616,0 54.54823,24.422078 54.54823,54.548238 z"
         transform="matrix(0.11000967,0,0,0.11000967,152.94223,418.02155)" />
      <path
         sodipodi:type="arc"
         style="fill:#000000;fill-opacity:1;stroke:#000000;stroke-width:1;stroke-miterlimit:4;stroke-opacity:1;stroke-dasharray:none;stroke-dashoffset:0"
         id="path8942-9-3-87"
         sodipodi:cx="171.72594"
         sodipodi:cy="110.90001"
         sodipodi:rx="54.548237"
         sodipodi:ry="54.548237"
         d="m 226.27417,110.90001 c 0,30.12616 -24.42207,54.54824 -54.54823,54.54824 -30.12616,0 -54.54824,-24.42208 -54.54824,-54.54824 0,-30.12616 24.42208,-54.548238 54.54824,-54.548238 30.12616,0 54.54823,24.422078 54.54823,54.548238 z"
         transform="matrix(0.11000967,0,0,0.11000967,229.15483,418.02155)" />
      <path
         sodipodi:type="arc"
         style="fill:#000000;fill-opacity:1;stroke:#000000;stroke-width:1;stroke-miterlimit:4;stroke-opacity:1;stroke-dasharray:none;stroke-dashoffset:0"
         id="path8942-1-0-13"
         sodipodi:cx="171.72594"
         sodipodi:cy="110.90001"
         sodipodi:rx="54.548237"
         sodipodi:ry="54.548237"
         d="m 226.27417,110.90001 c 0,30.12616 -24.42207,54.54824 -54.54823,54.54824 -30.12616,0 -54.54824,-24.42208 -54.54824,-54.54824 0,-30.12616 24.42208,-54.548238 54.54824,-54.548238 30.12616,0 54.54823,24.422078 54.54823,54.548238 z"
         transform="matrix(0.11000967,0,0,0.11000967,305.36742,418.02155)" />
      <path
         sodipodi:type="arc"
         style="fill:#000000;fill-opacity:1;stroke:#000000;stroke-width:1;stroke-miterlimit:4;stroke-opacity:1;stroke-dasharray:none;stroke-dashoffset:0"
         id="path8942-15-1-84"
         sodipodi:cx="171.72594"
         sodipodi:cy="110.90001"
         sodipodi:rx="54.548237"
         sodipodi:ry="54.548237"
         d="m 226.27417,110.90001 c 0,30.12616 -24.42207,54.54824 -54.54823,54.54824 -30.12616,0 -54.54824,-24.42208 -54.54824,-54.54824 0,-30.12616 24.42208,-54.548238 54.54824,-54.548238 30.12616,0 54.54823,24.422078 54.54823,54.548238 z"
         transform="matrix(0.11000967,0,0,0.11000967,381.58004,418.02155)" />
      <path
         sodipodi:type="arc"
         style="fill:#000000;fill-opacity:1;stroke:#000000;stroke-width:1;stroke-miterlimit:4;stroke-opacity:1;stroke-dasharray:none;stroke-dashoffset:0"
         id="path8942-5-4-7"
         sodipodi:cx="171.72594"
         sodipodi:cy="110.90001"
         sodipodi:rx="54.548237"
         sodipodi:ry="54.548237"
         d="m 226.27417,110.90001 c 0,30.12616 -24.42207,54.54824 -54.54823,54.54824 -30.12616,0 -54.54824,-24.42208 -54.54824,-54.54824 0,-30.12616 24.42208,-54.548238 54.54824,-54.548238 30.12616,0 54.54823,24.422078 54.54823,54.548238 z"
         transform="matrix(0.11000967,0,0,0.11000967,457.79267,418.02155)" />
      <path
         sodipodi:type="arc"
         style="fill:none;stroke:#000000;stroke-width:9.09010983;stroke-miterlimit:4;stroke-opacity:1;stroke-dasharray:none;stroke-dashoffset:0"
         id="path8942-3-2-07"
         sodipodi:cx="171.72594"
         sodipodi:cy="110.90001"
         sodipodi:rx="54.548237"
         sodipodi:ry="54.548237"
         d="m 226.27417,110.90001 c 0,30.12616 -24.42207,54.54824 -54.54823,54.54824 -30.12616,0 -54.54824,-24.42208 -54.54824,-54.54824 0,-30.12616 24.42208,-54.548238 54.54824,-54.548238 30.12616,0 54.54823,24.422078 54.54823,54.548238 z"
         transform="matrix(0.11000967,0,0,0.11000967,534.00523,418.02155)" />
      <path
         sodipodi:type="arc"
         style="fill:none;stroke:#000000;stroke-width:9.09010983;stroke-miterlimit:4;stroke-opacity:1;stroke-dasharray:none;stroke-dashoffset:0"
         id="path8942-0-24"
         sodipodi:cx="171.72594"
         sodipodi:cy="110.90001"
         sodipodi:rx="54.548237"
         sodipodi:ry="54.548237"
         d="m 226.27417,110.90001 c 0,30.12616 -24.42207,54.54824 -54.54823,54.54824 -30.12616,0 -54.54824,-24.42208 -54.54824,-54.54824 0,-30.12616 24.42208,-54.548238 54.54824,-54.548238 30.12616,0 54.54823,24.422078 54.54823,54.548238 z"
         transform="matrix(0.11000967,0,0,0.11000967,76.729612,495.22568)" />
      <path
         sodipodi:type="arc"
         style="fill:#000000;fill-opacity:1;stroke:#000000;stroke-width:1;stroke-miterlimit:4;stroke-opacity:1;stroke-dasharray:none;stroke-dashoffset:0"
         id="path8942-8-3-31"
         sodipodi:cx="171.72594"
         sodipodi:cy="110.90001"
         sodipodi:rx="54.548237"
         sodipodi:ry="54.548237"
         d="m 226.27417,110.90001 c 0,30.12616 -24.42207,54.54824 -54.54823,54.54824 -30.12616,0 -54.54824,-24.42208 -54.54824,-54.54824 0,-30.12616 24.42208,-54.548238 54.54824,-54.548238 30.12616,0 54.54823,24.422078 54.54823,54.548238 z"
         transform="matrix(0.11000967,0,0,0.11000967,152.94223,495.22568)" />
      <path
         sodipodi:type="arc"
         style="fill:#000000;fill-opacity:1;stroke:#000000;stroke-width:1;stroke-miterlimit:4;stroke-opacity:1;stroke-dasharray:none;stroke-dashoffset:0"
         id="path8942-9-3-9"
         sodipodi:cx="171.72594"
         sodipodi:cy="110.90001"
         sodipodi:rx="54.548237"
         sodipodi:ry="54.548237"
         d="m 226.27417,110.90001 c 0,30.12616 -24.42207,54.54824 -54.54823,54.54824 -30.12616,0 -54.54824,-24.42208 -54.54824,-54.54824 0,-30.12616 24.42208,-54.548238 54.54824,-54.548238 30.12616,0 54.54823,24.422078 54.54823,54.548238 z"
         transform="matrix(0.11000967,0,0,0.11000967,229.15483,495.22568)" />
      <path
         sodipodi:type="arc"
         style="fill:#000000;fill-opacity:1;stroke:#000000;stroke-width:1;stroke-miterlimit:4;stroke-opacity:1;stroke-dasharray:none;stroke-dashoffset:0"
         id="path8942-1-0-6"
         sodipodi:cx="171.72594"
         sodipodi:cy="110.90001"
         sodipodi:rx="54.548237"
         sodipodi:ry="54.548237"
         d="m 226.27417,110.90001 c 0,30.12616 -24.42207,54.54824 -54.54823,54.54824 -30.12616,0 -54.54824,-24.42208 -54.54824,-54.54824 0,-30.12616 24.42208,-54.548238 54.54824,-54.548238 30.12616,0 54.54823,24.422078 54.54823,54.548238 z"
         transform="matrix(0.11000967,0,0,0.11000967,305.36742,495.22568)" />
      <path
         sodipodi:type="arc"
         style="fill:#000000;fill-opacity:1;stroke:#000000;stroke-width:1;stroke-miterlimit:4;stroke-opacity:1;stroke-dasharray:none;stroke-dashoffset:0"
         id="path8942-15-1-1"
         sodipodi:cx="171.72594"
         sodipodi:cy="110.90001"
         sodipodi:rx="54.548237"
         sodipodi:ry="54.548237"
         d="m 226.27417,110.90001 c 0,30.12616 -24.42207,54.54824 -54.54823,54.54824 -30.12616,0 -54.54824,-24.42208 -54.54824,-54.54824 0,-30.12616 24.42208,-54.548238 54.54824,-54.548238 30.12616,0 54.54823,24.422078 54.54823,54.548238 z"
         transform="matrix(0.11000967,0,0,0.11000967,381.58004,495.22568)" />
      <path
         sodipodi:type="arc"
         style="fill:#000000;fill-opacity:1;stroke:#000000;stroke-width:1;stroke-miterlimit:4;stroke-opacity:1;stroke-dasharray:none;stroke-dashoffset:0"
         id="path8942-5-4-4"
         sodipodi:cx="171.72594"
         sodipodi:cy="110.90001"
         sodipodi:rx="54.548237"
         sodipodi:ry="54.548237"
         d="m 226.27417,110.90001 c 0,30.12616 -24.42207,54.54824 -54.54823,54.54824 -30.12616,0 -54.54824,-24.42208 -54.54824,-54.54824 0,-30.12616 24.42208,-54.548238 54.54824,-54.548238 30.12616,0 54.54823,24.422078 54.54823,54.548238 z"
         transform="matrix(0.11000967,0,0,0.11000967,457.79267,495.22568)" />
      <path
         sodipodi:type="arc"
         style="fill:none;stroke:#000000;stroke-width:9.09010983;stroke-miterlimit:4;stroke-opacity:1;stroke-dasharray:none;stroke-dashoffset:0"
         id="path8942-3-2-2"
         sodipodi:cx="171.72594"
         sodipodi:cy="110.90001"
         sodipodi:rx="54.548237"
         sodipodi:ry="54.548237"
         d="m 226.27417,110.90001 c 0,30.12616 -24.42207,54.54824 -54.54823,54.54824 -30.12616,0 -54.54824,-24.42208 -54.54824,-54.54824 0,-30.12616 24.42208,-54.548238 54.54824,-54.548238 30.12616,0 54.54823,24.422078 54.54823,54.548238 z"
         transform="matrix(0.11000967,0,0,0.11000967,534.00523,495.22568)" />
      <path
         sodipodi:type="arc"
         style="fill:none;stroke:#000000;stroke-width:9.09010983;stroke-miterlimit:4;stroke-opacity:1;stroke-dasharray:none;stroke-dashoffset:0"
         id="path8942-0-9"
         sodipodi:cx="171.72594"
         sodipodi:cy="110.90001"
         sodipodi:rx="54.548237"
         sodipodi:ry="54.548237"
         d="m 226.27417,110.90001 c 0,30.12616 -24.42207,54.54824 -54.54823,54.54824 -30.12616,0 -54.54824,-24.42208 -54.54824,-54.54824 0,-30.12616 24.42208,-54.548238 54.54824,-54.548238 30.12616,0 54.54823,24.422078 54.54823,54.548238 z"
         transform="matrix(0.11000967,0,0,0.11000967,76.729612,572.42987)" />
      <path
         sodipodi:type="arc"
         style="fill:#000000;fill-opacity:1;stroke:#000000;stroke-width:1;stroke-miterlimit:4;stroke-opacity:1;stroke-dasharray:none;stroke-dashoffset:0"
         id="path8942-8-3-1"
         sodipodi:cx="171.72594"
         sodipodi:cy="110.90001"
         sodipodi:rx="54.548237"
         sodipodi:ry="54.548237"
         d="m 226.27417,110.90001 c 0,30.12616 -24.42207,54.54824 -54.54823,54.54824 -30.12616,0 -54.54824,-24.42208 -54.54824,-54.54824 0,-30.12616 24.42208,-54.548238 54.54824,-54.548238 30.12616,0 54.54823,24.422078 54.54823,54.548238 z"
         transform="matrix(0.11000967,0,0,0.11000967,152.94223,572.42987)" />
      <path
         sodipodi:type="arc"
         style="fill:#000000;fill-opacity:1;stroke:#000000;stroke-width:1;stroke-miterlimit:4;stroke-opacity:1;stroke-dasharray:none;stroke-dashoffset:0"
         id="path8942-9-3-58"
         sodipodi:cx="171.72594"
         sodipodi:cy="110.90001"
         sodipodi:rx="54.548237"
         sodipodi:ry="54.548237"
         d="m 226.27417,110.90001 c 0,30.12616 -24.42207,54.54824 -54.54823,54.54824 -30.12616,0 -54.54824,-24.42208 -54.54824,-54.54824 0,-30.12616 24.42208,-54.548238 54.54824,-54.548238 30.12616,0 54.54823,24.422078 54.54823,54.548238 z"
         transform="matrix(0.11000967,0,0,0.11000967,229.15483,572.42987)" />
      <path
         sodipodi:type="arc"
         style="fill:#000000;fill-opacity:1;stroke:#000000;stroke-width:1;stroke-miterlimit:4;stroke-opacity:1;stroke-dasharray:none;stroke-dashoffset:0"
         id="path8942-1-0-5"
         sodipodi:cx="171.72594"
         sodipodi:cy="110.90001"
         sodipodi:rx="54.548237"
         sodipodi:ry="54.548237"
         d="m 226.27417,110.90001 c 0,30.12616 -24.42207,54.54824 -54.54823,54.54824 -30.12616,0 -54.54824,-24.42208 -54.54824,-54.54824 0,-30.12616 24.42208,-54.548238 54.54824,-54.548238 30.12616,0 54.54823,24.422078 54.54823,54.548238 z"
         transform="matrix(0.11000967,0,0,0.11000967,305.36742,572.42987)" />
      <path
         sodipodi:type="arc"
         style="fill:#000000;fill-opacity:1;stroke:#000000;stroke-width:1;stroke-miterlimit:4;stroke-opacity:1;stroke-dasharray:none;stroke-dashoffset:0"
         id="path8942-15-1-4"
         sodipodi:cx="171.72594"
         sodipodi:cy="110.90001"
         sodipodi:rx="54.548237"
         sodipodi:ry="54.548237"
         d="m 226.27417,110.90001 c 0,30.12616 -24.42207,54.54824 -54.54823,54.54824 -30.12616,0 -54.54824,-24.42208 -54.54824,-54.54824 0,-30.12616 24.42208,-54.548238 54.54824,-54.548238 30.12616,0 54.54823,24.422078 54.54823,54.548238 z"
         transform="matrix(0.11000967,0,0,0.11000967,381.58004,572.42987)" />
      <path
         sodipodi:type="arc"
         style="fill:#000000;fill-opacity:1;stroke:#000000;stroke-width:1;stroke-miterlimit:4;stroke-opacity:1;stroke-dasharray:none;stroke-dashoffset:0"
         id="path8942-5-4-17"
         sodipodi:cx="171.72594"
         sodipodi:cy="110.90001"
         sodipodi:rx="54.548237"
         sodipodi:ry="54.548237"
         d="m 226.27417,110.90001 c 0,30.12616 -24.42207,54.54824 -54.54823,54.54824 -30.12616,0 -54.54824,-24.42208 -54.54824,-54.54824 0,-30.12616 24.42208,-54.548238 54.54824,-54.548238 30.12616,0 54.54823,24.422078 54.54823,54.548238 z"
         transform="matrix(0.11000967,0,0,0.11000967,457.79267,572.42987)" />
      <path
         sodipodi:type="arc"
         style="fill:none;stroke:#000000;stroke-width:9.09010983;stroke-miterlimit:4;stroke-opacity:1;stroke-dasharray:none;stroke-dashoffset:0"
         id="path8942-3-2-23"
         sodipodi:cx="171.72594"
         sodipodi:cy="110.90001"
         sodipodi:rx="54.548237"
         sodipodi:ry="54.548237"
         d="m 226.27417,110.90001 c 0,30.12616 -24.42207,54.54824 -54.54823,54.54824 -30.12616,0 -54.54824,-24.42208 -54.54824,-54.54824 0,-30.12616 24.42208,-54.548238 54.54824,-54.548238 30.12616,0 54.54823,24.422078 54.54823,54.548238 z"
         transform="matrix(0.11000967,0,0,0.11000967,534.00523,572.42987)" />
      <path
         sodipodi:type="arc"
         style="fill:none;stroke:#000000;stroke-width:9.09010983;stroke-miterlimit:4;stroke-opacity:1;stroke-dasharray:none;stroke-dashoffset:0"
         id="path8942-0-22"
         sodipodi:cx="171.72594"
         sodipodi:cy="110.90001"
         sodipodi:rx="54.548237"
         sodipodi:ry="54.548237"
         d="m 226.27417,110.90001 c 0,30.12616 -24.42207,54.54824 -54.54823,54.54824 -30.12616,0 -54.54824,-24.42208 -54.54824,-54.54824 0,-30.12616 24.42208,-54.548238 54.54824,-54.548238 30.12616,0 54.54823,24.422078 54.54823,54.548238 z"
         transform="matrix(0.11000967,0,0,0.11000967,76.729612,649.63407)" />
      <path
         sodipodi:type="arc"
         style="fill:none;stroke:#000000;stroke-width:9.09010983;stroke-miterlimit:4;stroke-opacity:1;stroke-dasharray:none;stroke-dashoffset:0"
         id="path8942-8-3-2"
         sodipodi:cx="171.72594"
         sodipodi:cy="110.90001"
         sodipodi:rx="54.548237"
         sodipodi:ry="54.548237"
         d="m 226.27417,110.90001 c 0,30.12616 -24.42207,54.54824 -54.54823,54.54824 -30.12616,0 -54.54824,-24.42208 -54.54824,-54.54824 0,-30.12616 24.42208,-54.548238 54.54824,-54.548238 30.12616,0 54.54823,24.422078 54.54823,54.548238 z"
         transform="matrix(0.11000967,0,0,0.11000967,152.94223,649.63407)" />
      <path
         sodipodi:type="arc"
         style="fill:none;stroke:#000000;stroke-width:9.09010983;stroke-miterlimit:4;stroke-opacity:1;stroke-dasharray:none;stroke-dashoffset:0"
         id="path8942-9-3-6"
         sodipodi:cx="171.72594"
         sodipodi:cy="110.90001"
         sodipodi:rx="54.548237"
         sodipodi:ry="54.548237"
         d="m 226.27417,110.90001 c 0,30.12616 -24.42207,54.54824 -54.54823,54.54824 -30.12616,0 -54.54824,-24.42208 -54.54824,-54.54824 0,-30.12616 24.42208,-54.548238 54.54824,-54.548238 30.12616,0 54.54823,24.422078 54.54823,54.548238 z"
         transform="matrix(0.11000967,0,0,0.11000967,229.15483,649.63407)" />
      <path
         sodipodi:type="arc"
         style="fill:none;stroke:#000000;stroke-width:9.09010983;stroke-miterlimit:4;stroke-opacity:1;stroke-dasharray:none;stroke-dashoffset:0"
         id="path8942-1-0-2"
         sodipodi:cx="171.72594"
         sodipodi:cy="110.90001"
         sodipodi:rx="54.548237"
         sodipodi:ry="54.548237"
         d="m 226.27417,110.90001 c 0,30.12616 -24.42207,54.54824 -54.54823,54.54824 -30.12616,0 -54.54824,-24.42208 -54.54824,-54.54824 0,-30.12616 24.42208,-54.548238 54.54824,-54.548238 30.12616,0 54.54823,24.422078 54.54823,54.548238 z"
         transform="matrix(0.11000967,0,0,0.11000967,305.36742,649.63407)" />
      <path
         sodipodi:type="arc"
         style="fill:none;stroke:#000000;stroke-width:9.09010983;stroke-miterlimit:4;stroke-opacity:1;stroke-dasharray:none;stroke-dashoffset:0"
         id="path8942-15-1-85"
         sodipodi:cx="171.72594"
         sodipodi:cy="110.90001"
         sodipodi:rx="54.548237"
         sodipodi:ry="54.548237"
         d="m 226.27417,110.90001 c 0,30.12616 -24.42207,54.54824 -54.54823,54.54824 -30.12616,0 -54.54824,-24.42208 -54.54824,-54.54824 0,-30.12616 24.42208,-54.548238 54.54824,-54.548238 30.12616,0 54.54823,24.422078 54.54823,54.548238 z"
         transform="matrix(0.11000967,0,0,0.11000967,381.58004,649.63407)" />
      <path
         sodipodi:type="arc"
         style="fill:none;stroke:#000000;stroke-width:9.09010983;stroke-miterlimit:4;stroke-opacity:1;stroke-dasharray:none;stroke-dashoffset:0"
         id="path8942-5-4-25"
         sodipodi:cx="171.72594"
         sodipodi:cy="110.90001"
         sodipodi:rx="54.548237"
         sodipodi:ry="54.548237"
         d="m 226.27417,110.90001 c 0,30.12616 -24.42207,54.54824 -54.54823,54.54824 -30.12616,0 -54.54824,-24.42208 -54.54824,-54.54824 0,-30.12616 24.42208,-54.548238 54.54824,-54.548238 30.12616,0 54.54823,24.422078 54.54823,54.548238 z"
         transform="matrix(0.11000967,0,0,0.11000967,457.79267,649.63407)" />
      <path
         sodipodi:type="arc"
         style="fill:none;stroke:#000000;stroke-width:9.09010983;stroke-miterlimit:4;stroke-opacity:1;stroke-dasharray:none;stroke-dashoffset:0"
         id="path8942-3-2-05"
         sodipodi:cx="171.72594"
         sodipodi:cy="110.90001"
         sodipodi:rx="54.548237"
         sodipodi:ry="54.548237"
         d="m 226.27417,110.90001 c 0,30.12616 -24.42207,54.54824 -54.54823,54.54824 -30.12616,0 -54.54824,-24.42208 -54.54824,-54.54824 0,-30.12616 24.42208,-54.548238 54.54824,-54.548238 30.12616,0 54.54823,24.422078 54.54823,54.548238 z"
         transform="matrix(0.11000967,0,0,0.11000967,534.00523,649.63407)" />
    </g>
    <path
       sodipodi:nodetypes="cssssssssc"
       inkscape:connector-curvature="0"
       id="path9382"
       d="m 170.71578,586.68186 c 0,0 3.68853,-0.1741 9.59084,-0.42103 2.76308,-0.11559 6.01131,-0.24714 9.5934,-0.38426 2.99418,-0.11461 6.22163,-0.23312 9.59397,-0.34944 3.09929,-0.10691 6.32096,-0.21198 9.59642,-0.31049 3.16968,-0.0953 6.38974,-0.18454 9.59801,-0.26333 3.23249,-0.0794 6.45302,-0.14823 9.59803,-0.20213 3.3083,-0.0567 6.53303,-0.0969 9.60019,-0.11548 3.4321,-0.0208 6.66691,-0.0146 9.60073,0.0259 3.174,0.0437 6.32897,0.0773 9.46963,0.10239 3.1697,0.0254 6.32481,0.0422 9.47018,0.0522 3.16478,0.0101 6.31971,0.0134 9.4697,0.0117 3.15993,-0.002 6.31489,-0.008 9.46987,-0.0182 3.15528,-0.01 6.31058,-0.0228 9.47087,-0.037 3.15035,-0.0142 6.30567,-0.0296 9.47088,-0.0444 3.1455,-0.0147 6.30078,-0.0289 9.47068,-0.0406 3.14062,-0.0116 6.2956,-0.0209 9.46963,-0.026 3.15742,-0.005 6.36052,-0.0168 9.5976,-0.0346 3.16986,-0.0173 6.3723,-0.0404 9.59633,-0.0686 3.18182,-0.0278 6.38467,-0.0605 9.59798,-0.0975 3.19231,-0.0368 6.39493,-0.0779 9.59752,-0.12261 3.20195,-0.0447 6.40386,-0.0931 9.59537,-0.14456 3.21282,-0.0518 6.4151,-0.10667 9.59628,-0.16403 3.22361,-0.0581 6.42556,-0.11879 9.59484,-0.18136 3.23653,-0.0639 6.43899,-0.12978 9.59568,-0.19695 3.20488,-0.0682 6.4381,0.0623 9.68894,0.32415 3.19826,0.25757 6.41357,0.64222 9.63572,1.08968 3.19266,0.44338 6.39203,0.94843 9.58818,1.45268 3.20334,0.50538 6.40345,1.00995 9.59032,1.45079 3.22969,0.44677 6.44578,0.82809 9.63786,1.07848 3.2587,0.25561 6.49237,0.37476 9.68994,0.2878 3.2538,-0.0885 6.47022,-0.39043 9.63758,-0.97921 3.15348,-0.5862 6.25834,-1.45674 9.30305,-2.68406 2.63768,-1.06325 5.57613,-2.43077 8.47639,-4.05621 2.72737,-1.52855 5.42095,-3.28517 7.79887,-5.23132 2.57827,-2.11012 4.78543,-4.44305 6.26219,-6.94964 1.6557,-2.81034 2.39324,-5.83898 1.70621,-9.01665 -0.70779,-3.27369 -2.05697,-6.2125 -3.98978,-8.8438 -1.83972,-2.50457 -4.2082,-4.73053 -7.05565,-6.70151 -2.50481,-1.73381 -5.38025,-3.2703 -8.59243,-4.62554 -2.8272,-1.19282 -5.91526,-2.24524 -9.24108,-3.16821 -2.98887,-0.82946 -6.16977,-1.55437 -9.5259,-2.18269 -3.07718,-0.57609 -6.30167,-1.07098 -9.66056,-1.49078 -3.12887,-0.39106 -6.37435,-0.71698 -9.726,-0.9827 -3.16105,-0.25061 -6.41653,-0.44767 -9.75769,-0.59536 -3.18215,-0.14065 -6.44201,-0.23651 -9.77201,-0.29117 -3.19657,-0.0525 -6.45778,-0.0669 -9.7769,-0.0466 -3.20619,0.0196 -6.46643,0.0717 -9.77467,0.15337 -3.21382,0.0794 -6.47295,0.18664 -9.77186,0.31924 -3.21894,0.12938 -6.47574,0.28287 -9.76527,0.45802 -3.22347,0.17164 -6.47835,0.36407 -9.75982,0.57501 -3.22678,0.20743 -6.47926,0.43275 -9.75285,0.67379 -3.22992,0.23781 -6.48038,0.49093 -9.74696,0.75725 -3.23256,0.26355 -6.48092,0.54002 -9.74078,0.82739 -3.23533,0.28521 -6.48198,0.58116 -9.73579,0.88585 -3.2384,0.30325 -6.48387,0.61517 -9.73229,0.93379 -3.24123,0.31793 -6.48539,0.64253 -9.72839,0.97186 -3.2441,0.32945 -6.48704,0.66364 -9.72471,1.00062 -3.24727,0.33798 -6.48924,0.67877 -9.72176,1.02041 -3.25149,0.34364 -6.49343,0.68813 -9.72159,1.03149 -3.25613,0.34633 -6.49824,0.69149 -9.72202,1.03345 -3.26091,0.34589 -6.50305,0.6885 -9.72195,1.02569 -3.26653,0.34219 -6.50912,0.6788 -9.72311,1.00762 -3.27377,0.33494 -6.51785,0.6618 -9.72731,0.97824 -3.28157,0.32354 -6.52694,0.63619 -9.73082,0.93543 -3.29101,0.30738 -6.53824,0.60062 -9.73596,0.87699 -3.30255,0.28544 -6.55228,0.55289 -9.7429,0.79937 -3.31668,0.25622 -6.56948,0.48977 -9.75131,0.6973 -3.33396,0.21745 -6.59,0.40633 -9.75997,0.56277 -3.3559,0.16561 -6.61534,0.29487 -9.76863,0.38319 -3.38457,0.0948 -6.64685,0.14242 -9.77489,0.13721 -3.4235,-0.006 -6.68619,-0.0747 -9.7724,-0.21443 -3.48055,-0.15758 -6.73662,-0.40512 -9.74572,-0.75328 -3.56782,-0.4128 -6.78844,-0.96706 -9.62436,-1.68056 -3.68834,-0.92796 -6.72596,-2.12527 -9.03035,-3.63104 -3.11426,-2.03496 -4.88934,-4.6333 -5.12161,-7.89154 -0.18855,-2.645 0.63962,-5.72488 2.59344,-9.29127 1.25873,-2.29761 2.92947,-4.43768 4.9038,-6.41419 1.85043,-1.85246 3.96755,-3.56124 6.26208,-5.12137 2.1966,-1.49354 4.5558,-2.85084 6.99929,-4.06754 2.42246,-1.20624 4.92775,-2.27428 7.43959,-3.1999 2.59791,-0.95733 5.20281,-1.7623 7.73028,-2.41021 3.19977,-0.82025 6.42513,-1.31018 9.67098,-1.54564 3.24736,-0.23555 6.51524,-0.21639 9.79855,-0.0184 3.23662,0.19512 6.48823,0.56398 9.74998,1.03383 3.21556,0.4632 6.44096,1.02455 9.67155,1.61435 3.21112,0.58625 6.42736,1.20061 9.64414,1.77464 3.22923,0.57626 6.459,1.11187 9.68469,1.53761 3.26082,0.43037 6.51745,0.74845 9.76512,0.88272 3.27634,0.13546 6.54356,0.0838 9.79673,-0.22829 2.95238,-0.28327 6.32836,-0.53476 9.83454,-0.7557 3.24888,-0.20473 6.60955,-0.38323 9.84857,-0.53648 3.53014,-0.16703 6.91578,-0.30408 9.85474,-0.41241 5.79844,-0.21374 9.8581,-0.31572 9.8581,-0.31572"
       style="fill:none;stroke:#000000;stroke-width:1;stroke-linecap:butt;stroke-linejoin:miter;stroke-miterlimit:4;stroke-opacity:1;stroke-dasharray:4, 8;stroke-dashoffset:0;marker-end:url(#Arrow1Lend)" />
    <path
       style="fill:none;stroke:#000000;stroke-width:0.78628957px;stroke-linecap:butt;stroke-linejoin:miter;stroke-opacity:1;marker-start:none;marker-end:url(#Arrow1Lend)"
       d="m 17.599002,743.35448 225.454638,0"
       id="path10758"
       inkscape:connector-curvature="0" />
    <path
       style="fill:none;stroke:#000000;stroke-width:0.78628957px;stroke-linecap:butt;stroke-linejoin:miter;stroke-opacity:1;marker-start:none;marker-end:url(#Arrow1Lend)"
       d="m 18.033961,743.11857 0,-225.45463"
       id="path10758-5"
       inkscape:connector-curvature="0" />
    <g
       id="g11584"
       transform="translate(-42.142857,398.57143)">
      <g
         id="content"
         transform="matrix(1.0629921,0,0,-1.0629921,-186.02362,789.27165)"
         xml:space="preserve"
         stroke-miterlimit="10.433"
         font-style="normal"
         font-variant="normal"
         font-weight="normal"
         font-stretch="normal"
         font-size-adjust="none"
         letter-spacing="normal"
         word-spacing="normal"
         style="font-style:normal;font-variant:normal;font-weight:normal;font-stretch:normal;letter-spacing:normal;word-spacing:normal;text-anchor:start;fill:none;stroke:#000000;stroke-linecap:butt;stroke-linejoin:miter;stroke-miterlimit:10.43299961;stroke-opacity:1;stroke-dasharray:none;stroke-dashoffset:0"><path
           d="m 472.16,421.25 0.03,0.13 0.04,0.15 0.04,0.16 0.04,0.18 0.06,0.19 0.06,0.21 0.06,0.22 0.07,0.22 0.08,0.23 0.09,0.24 0.1,0.25 0.1,0.24 0.11,0.25 0.12,0.25 0.13,0.25 0.14,0.25 0.15,0.24 0.15,0.24 0.17,0.23 0.18,0.22 0.18,0.22 0.2,0.2 0.21,0.19 0.22,0.18 0.23,0.16 0.25,0.14 0.12,0.07 0.13,0.06 0.14,0.05 0.13,0.05 0.14,0.05 0.14,0.04 0.15,0.03 0.15,0.03 0.15,0.02 0.16,0.02 0.16,0.01 0.16,0 c 0.25,0 1.44,0 2.48,-0.64 -1.39,-0.25 -2.39,-1.5 -2.39,-2.69 0,-0.79 0.55,-1.75 1.89,-1.75 1.1,0 2.69,0.89 2.69,2.89 0,2.6 -2.94,3.28 -4.63,3.28 -2.89,0 -4.64,-2.64 -5.23,-3.78 -1.25,3.28 -3.94,3.78 -5.37,3.78 -5.19,0 -8.04,-6.42 -8.04,-7.67 0,-0.5 0.5,-0.5 0.61,-0.5 0.39,0 0.55,0.11 0.64,0.55 1.69,5.28 4.99,6.53 6.68,6.53 0.95,0 2.68,-0.44 2.68,-3.33 0,-1.54 -0.84,-4.89 -2.68,-11.86 -0.8,-3.09 -2.54,-5.18 -4.74,-5.18 -0.3,0 -1.44,0 -2.48,0.65 1.25,0.24 2.34,1.28 2.34,2.69 0,1.34 -1.09,1.73 -1.84,1.73 -1.5,0 -2.75,-1.29 -2.75,-2.89 0,-2.28 2.5,-3.28 4.68,-3.28 3.3,0 5.08,3.49 5.24,3.78 0.59,-1.84 2.39,-3.78 5.37,-3.78 5.14,0 7.99,6.42 7.99,7.67 0,0.5 -0.45,0.5 -0.61,0.5 -0.44,0 -0.55,-0.2 -0.64,-0.54 -1.64,-5.33 -5.03,-6.53 -6.63,-6.53 -1.95,0 -2.75,1.59 -2.75,3.29 0,1.1 0.3,2.19 0.86,4.38 z"
           id="path11587"
           inkscape:connector-curvature="0"
           style="fill:#000000;stroke-width:0" /></g>    </g>
    <g
       id="g11713"
       transform="translate(-291.42857,135)">
      <g
         word-spacing="normal"
         letter-spacing="normal"
         font-size-adjust="none"
         font-stretch="normal"
         font-weight="normal"
         font-variant="normal"
         font-style="normal"
         stroke-miterlimit="10.433"
         xml:space="preserve"
         transform="matrix(1.0629921,0,0,-1.0629921,-186.02362,789.27165)"
         id="g11715"
         style="font-style:normal;font-variant:normal;font-weight:normal;font-stretch:normal;letter-spacing:normal;word-spacing:normal;text-anchor:start;fill:none;stroke:#000000;stroke-linecap:butt;stroke-linejoin:miter;stroke-miterlimit:10.43299961;stroke-opacity:1;stroke-dasharray:none;stroke-dashoffset:0"><path
           id="path11717"
           d="m 479.74,425.18 0.01,0.04 0.01,0.03 0.01,0.06 0.02,0.05 0.01,0.06 0.01,0.05 0.02,0.04 0.01,0.05 0.01,0.04 0.01,0.04 0,0.04 0.01,0.04 0.01,0.04 0.01,0.03 0,0.03 0.01,0.03 0,0.03 0.01,0.03 0,0.03 0.01,0.05 0,0.06 0,0.05 0,0.05 0.01,0.05 0,0.03 0,0.03 0,0.03 0,0.03 c 0,0.91 -0.69,1.35 -1.44,1.35 -0.5,0 -1.3,-0.3 -1.75,-1.05 -0.1,-0.25 -0.5,-1.78 -0.69,-2.69 -0.36,-1.29 -0.7,-2.64 -1,-3.98 l -2.25,-8.97 c -0.19,-0.75 -2.33,-4.23 -5.62,-4.23 -2.54,0 -3.1,2.18 -3.1,4.03 0,2.29 0.86,5.39 2.55,9.76 0.8,2.05 1,2.6 1,3.6 0,2.23 -1.59,4.07 -4.09,4.07 -4.74,0 -6.58,-7.21 -6.58,-7.67 0,-0.5 0.5,-0.5 0.61,-0.5 0.5,0 0.54,0.11 0.79,0.91 1.35,4.69 3.33,6.17 5.03,6.17 0.4,0 1.25,0 1.25,-1.59 0,-1.25 -0.5,-2.53 -0.85,-3.49 -1.99,-5.28 -2.9,-8.12 -2.9,-10.47 0,-4.42 3.15,-5.92 6.08,-5.92 1.96,0 3.64,0.85 5.03,2.24 -0.64,-2.58 -1.23,-5.03 -3.23,-7.68 -1.3,-1.68 -3.19,-3.14 -5.48,-3.14 -0.69,0 -2.94,0.16 -3.79,2.1 0.8,0 1.46,0 2.14,0.61 0.5,0.43 1,1.09 1,2.03 0,1.55 -1.34,1.75 -1.84,1.75 -1.14,0 -2.8,-0.8 -2.8,-3.24 0,-2.5 2.21,-4.34 5.29,-4.34 5.14,0 10.26,4.55 11.67,10.17 z"
           inkscape:connector-curvature="0"
           style="fill:#000000;stroke-width:0" /></g>    </g>
  </g>
</svg>
